<?xml version="1.0" encoding="utf-8"?>
<!-- Generator: Adobe Illustrator 24.1.1, SVG Export Plug-In . SVG Version: 6.00 Build 0)  -->
<svg version="1.1" id="Layer_1" xmlns="http://www.w3.org/2000/svg" xmlns:xlink="http://www.w3.org/1999/xlink" x="0px" y="0px"
	 viewBox="0 0 48 60" style="enable-background:new 0 0 48 60;" xml:space="preserve">
<g>
	<path d="M19,39.8c-0.2,0.9,0.3,1.8,1.1,2c0,0,0,0,0,0c0.1,0,0.3,0,0.4,0c0.7,0,1.4-0.5,1.6-1.2l1.3-5.1l-2.7-2.7L19,39.8z"/>
	<path d="M19.7,29.8l2.1-8c0.1-0.4-0.1-0.9-0.5-1c0,0-0.1,0-0.1,0c-2.2-0.5-4.4,0.7-5,2.9l-1.3,5c-0.1,0.4,0.1,0.8,0.5,1
		c0,0,0.1,0,0.1,0l3.2,0.8C19.2,30.6,19.6,30.3,19.7,29.8L19.7,29.8z"/>
	<path d="M33.5,24h-0.8c-0.4,0-0.8,0.4-0.8,0.8v0.8h-1.8l-2.4-2.4c-1.2-1.2-3.1-1.1-4.2,0c-0.4,0.4-0.6,0.8-0.8,1.3L21.4,30
		c-0.1,0.6,0,1.1,0.4,1.5l4.4,4.4v4.2c0,0.9,0.7,1.6,1.6,1.6c0.9,0,1.6-0.7,1.6-1.6V36c0-0.9-0.3-1.7-1-2.3l-2.4-2.4c0,0,0,0,0-0.1
		l1-4l1.1,1.1c0.3,0.3,0.7,0.5,1.1,0.5h2.4V41c0,0.4,0.4,0.8,0.8,0.8c0,0,0,0,0,0h0.8c0.4,0,0.8-0.4,0.8-0.8c0,0,0,0,0,0V24.8
		C34.2,24.4,33.9,24,33.5,24L33.5,24L33.5,24z"/>
	<circle cx="27" cy="18.3" r="2.4"/>
</g>
</svg>
