<?xml version="1.0" encoding="utf-8"?>
<!-- Generator: Adobe Illustrator 24.1.1, SVG Export Plug-In . SVG Version: 6.00 Build 0)  -->
<svg version="1.1" xmlns="http://www.w3.org/2000/svg" xmlns:xlink="http://www.w3.org/1999/xlink" x="0px" y="0px"
	 viewBox="0 0 100 125" style="enable-background:new 0 0 100 125;" xml:space="preserve">
<g id="Layer_2">
</g>
<g id="Layer_1">
	<g>
		<path d="M50.7,12.1C25,12.1,4.1,33,4.1,58.7c0,6.7,1.5,13.4,4.3,19.5L2.6,97c-0.8,2.8-0.1,5.7,1.9,7.8c1.4,1.5,3.5,2.3,5.5,2.3
			c0.8,0,1.5-0.1,2.3-0.3l18.8-5.8c6.1,2.8,12.8,4.3,19.5,4.3c25.7,0,46.6-20.9,46.6-46.6S76.4,12.1,50.7,12.1z M50.7,95.6
			c-5.9,0-11.7-1.4-16.9-4.1c-1.1-0.6-2.4-0.7-3.6-0.3l-17.3,5.3l5.3-17.3c0.4-1.2,0.3-2.5-0.3-3.6c-2.7-5.2-4.1-11.1-4.1-16.9
			c0-20.4,16.6-36.9,37-36.9s36.9,16.6,36.9,36.9S71.1,95.6,50.7,95.6z"/>
		<path d="M66.6,43.5c-4.5-2.3-10-1-13.6,2.6l-2.4,2.4l-2.7-2.7C42.5,40.4,33,41.4,29.2,49c-2.3,4.5-1,10,2.6,13.6l17.3,17.3
			c0.8,0.8,2.2,0.8,3,0l17.7-17.6C75.2,56.8,74.2,47.4,66.6,43.5z"/>
	</g>
</g>
</svg>
