<?xml version="1.0" encoding="utf-8"?>
<!-- Generator: Adobe Illustrator 24.1.1, SVG Export Plug-In . SVG Version: 6.00 Build 0)  -->
<svg version="1.1" id="Layer_1" xmlns="http://www.w3.org/2000/svg" xmlns:xlink="http://www.w3.org/1999/xlink" x="0px" y="0px"
	 viewBox="0 0 64 80" style="enable-background:new 0 0 64 80;" xml:space="preserve">
<path d="M32.9,8.6C17.5,8.7,4.9,21.2,5,36.7C5,49,13,59.8,24.7,63.4l-1.8,6c-0.1,0.3,0,0.6,0.2,0.9c0.2,0.3,0.5,0.4,0.8,0.4h18
	c0.3,0,0.6-0.1,0.8-0.4c0.2-0.3,0.3-0.6,0.2-0.9l-1.8-6c14.8-4.6,23.1-20.2,18.5-35C56,16.7,45.2,8.7,32.9,8.6z M36.9,13.6
	c0-1.1-0.4-2.1-1.2-2.9c4.9,0.5,9.6,2.5,13.4,5.6c-2.2,0-4,1.8-4,4c0,0.2,0,0.3,0,0.5c-2.9-2.2-6.3-3.7-9.9-4.1
	C36.3,16.1,36.9,14.9,36.9,13.6z M29.1,37.6c0.1,0.4,0.2,0.7,0.4,1l-10,10c-2.7-3-4.3-6.9-4.6-11H29.1z M15,35.6
	c0.2-4.1,1.8-8,4.6-11l10,10c-0.2,0.3-0.3,0.6-0.4,1H15z M30.9,40.1c0.2,0.1,0.5,0.3,0.7,0.3l-4,13.4c-2.5-0.8-4.8-2-6.7-3.8
	L30.9,40.1z M28.9,56.6l0.6-2h6.9l0.6,2H28.9z M37.6,58.6l0.6,2H27.7l0.6-2H37.6z M30.1,52.6l0.6-2h4.5l0.6,2H30.1z M31.3,48.6
	l1.7-5.5l1.7,5.5H31.3z M38.8,62.6l0.6,2H26.5l0.6-2H38.8z M38.2,53.8l-4-13.4c0.3-0.1,0.5-0.2,0.7-0.3l10,10
	C43,51.8,40.7,53.1,38.2,53.8z M36.3,38.6c0.2-0.3,0.3-0.6,0.4-1h14.1c-0.2,4.1-1.8,8-4.5,11L36.3,38.6z M36.8,35.6
	c-0.1-0.4-0.2-0.7-0.4-1l10-10c2.7,3,4.3,6.9,4.6,11H36.8z M33.9,18.7c4.1,0.2,8,1.8,11,4.6l-10,10c-0.3-0.2-0.6-0.3-1-0.4V18.7z
	 M34.9,36.7c0,1.1-0.9,2-2,2c-1.1,0-2-0.9-2-2c0-1.1,0.9-2,2-2C34,34.7,34.9,35.6,34.9,36.7L34.9,36.7z M31.9,32.8
	c-0.4,0.1-0.7,0.2-1,0.4l-10-10c3-2.7,6.9-4.3,11-4.6V32.8z M30.1,10.8c-0.8,0.7-1.2,1.8-1.2,2.8c0,1.2,0.6,2.4,1.6,3.2
	c-3.6,0.4-7,1.9-9.9,4.1c0.3-2.2-1.2-4.2-3.4-4.5c-0.2,0-0.4,0-0.6,0C20.5,13.3,25.2,11.3,30.1,10.8L30.1,10.8z M12.7,20.4
	c0,2.2,1.8,4,4,4c0.2,0,0.4,0,0.6,0c-2.2,2.9-3.7,6.3-4.1,9.9c-0.7-1-1.9-1.6-3.2-1.6c-1.1,0-2.1,0.4-2.8,1.2
	C7.6,28.9,9.5,24.2,12.7,20.4z M13.8,50.1c-0.7,0.7-1.2,1.8-1.2,2.8c-3.1-3.9-5-8.5-5.6-13.4c0.8,0.7,1.8,1.2,2.8,1.2
	c1.2,0,2.4-0.6,3.2-1.6c0.4,3.6,1.9,7,4.1,9.9C15.9,48.8,14.7,49.2,13.8,50.1z M16.7,56.9c1.1,0,2.1-0.4,2.8-1.2
	c0.9-0.9,1.3-2.1,1.1-3.3c1.9,1.5,4.1,2.6,6.4,3.4l-1.7,5.7C22.2,60.5,19.2,59,16.7,56.9z M25.3,68.6l0.6-2H40l0.6,2H25.3z
	 M40.5,61.5l-1.7-5.8c2.3-0.7,4.5-1.9,6.4-3.4c-0.2,1.2,0.3,2.5,1.1,3.3c0.7,0.7,1.7,1.2,2.8,1.2C46.6,59,43.7,60.5,40.5,61.5z
	 M53.2,52.9c0-1.1-0.4-2.1-1.2-2.8c-0.9-0.9-2.1-1.3-3.3-1.1c2.2-2.9,3.7-6.3,4.1-9.9c0.8,1,1.9,1.6,3.2,1.6c1.1,0,2.1-0.4,2.8-1.2
	C58.2,44.4,56.3,49,53.2,52.9z M58.8,33.9c-0.7-0.8-1.8-1.2-2.8-1.2c-1.2,0-2.4,0.6-3.2,1.6c-0.4-3.6-1.9-7-4.1-9.9
	c2.2,0.3,4.2-1.2,4.5-3.4c0-0.2,0-0.4,0-0.6C56.3,24.2,58.2,28.9,58.8,33.9L58.8,33.9z"/>
</svg>
