<?xml version="1.0" encoding="utf-8"?>
<!-- Generator: Adobe Illustrator 24.1.1, SVG Export Plug-In . SVG Version: 6.00 Build 0)  -->
<svg version="1.1" id="Layer_1" xmlns="http://www.w3.org/2000/svg" xmlns:xlink="http://www.w3.org/1999/xlink" x="0px" y="0px"
	 viewBox="0 0 100 125" style="enable-background:new 0 0 100 125;" xml:space="preserve">
<g>
	<path d="M80.6,67.4c1.5-2.5,4.3-8.1,4.3-15.8c0-9.2-3.3-12.1-9.3-17.6c-3.2-2.9-7.1-6.4-11.9-12c-3.3-3.4-9.1-6.9-15.7-6.9
		c-9.8,0-17.4,8-17.4,18.3c0,0.6,0.1,1.2,0.2,2.1c0.4,2.7,0.9,6.9-0.9,11.6c-3.9,9.9-0.5,16.9,1.7,20.1c-1.6,1-2.2,2.7-1.7,4.2
		c0.6,1.7,2.1,2.5,4.3,2.2c1.9-0.2,6-1,9.9-4.2h0.1c-0.3,0.8-0.5,1.7-0.5,2.7c0,2.8,1.4,5.3,3.7,6.8l2.2,23c0,3.7,2.9,6.8,6.4,6.8
		c3.5,0,6.4-3,6.4-6.7l2.1-23.2c2.3-1.5,3.6-4,3.6-6.7c0-0.9-0.2-1.8-0.5-2.7h0.1c4.1,3.1,9,4.1,9.8,4.2c0.3,0.1,0.7,0.2,1.1,0.2
		l0,0c1.5,0,2.8-1,3.3-2.4C82.3,69.9,81.8,68.4,80.6,67.4z M31.7,47.7c2-5.2,1.4-9.8,1-12.6c-0.1-0.7-0.2-1.4-0.2-1.8
		c0-9.3,6.6-16.3,15.4-16.3c6,0,11.3,3.3,14.3,6.3c4.9,5.7,8.8,9.3,12.1,12.2c5.9,5.4,8.6,7.8,8.6,16.1c0,7.2-2.6,12.5-4,14.7
		c-3.1-1.8-8.7-6.5-10.3-16.9c-0.5-3-3.2-5.2-6.1-4.8c-2.2,0.3-4.2,0.5-6.3,0.5c-2.1,0-4.3-0.2-7-0.5c-2.9-0.4-5.6,1.7-6.1,4.7
		c-1.6,9-6,13.9-9.8,16.5C31.2,63.3,28,57,31.7,47.7z"/>
	<circle cx="55.8" cy="35.6" r="8.3"/>
</g>
</svg>
