<?xml version="1.0" encoding="utf-8"?>
<!-- Generator: Adobe Illustrator 24.1.1, SVG Export Plug-In . SVG Version: 6.00 Build 0)  -->
<svg version="1.1" id="Layer_1" xmlns="http://www.w3.org/2000/svg" xmlns:xlink="http://www.w3.org/1999/xlink" x="0px" y="0px"
	 viewBox="0 0 54.3 53.9" style="enable-background:new 0 0 54.3 53.9;" xml:space="preserve">
<g>
	<g>
		<path d="M16.8,14.8c-1.5,0-3.4-0.4-3.4-2.2s1.8-3.4,3.5-3.5c1.7-0.1,3.5,1.4,3.2,3.2C19.9,13.9,18.2,14.6,16.8,14.8
			c-1.9,0.3-1.9,3.3,0,3c3.1-0.4,6.2-2,6.4-5.5C23.4,8.9,20.3,6,17,6.1s-6.4,3-6.6,6.3c-0.2,3.6,3.1,5.4,6.4,5.4
			C18.7,17.8,18.7,14.8,16.8,14.8L16.8,14.8z"/>
	</g>
</g>
<g>
	<g>
		<path d="M5,43.9C1.8,40,6.5,32.5,9.3,29.8c4.2-4.1,9.8-6.2,15.4-7.6c4.5-1.1,10.1-2.9,14.7-1.4c3.2,1,6,3.8,5.9,7.4
			c-0.1,1.7-1.5,4.6-3.3,5.1c-5.1,1.4-1.4-4.3-0.1-5.7c1.3-1.4-0.8-3.5-2.1-2.1c-2.4,2.5-5.2,6-2.8,9.6c1.8,2.7,4.9,1.9,7.2,0.4
			c7.2-4.8,4.1-14.9-3.3-17.5c-4.5-1.6-9.2-0.4-13.8,0.6c-5.5,1.2-11.1,2.8-15.8,5.9C5.4,28.4-2.9,38.9,2.9,46
			C4.1,47.5,6.2,45.4,5,43.9L5,43.9z"/>
	</g>
</g>
<g>
	<g>
		<path d="M38.9,25.8c-4.7-2.7-10.1-2.9-13.3,2.1c-2.9,4.5-3.2,10.6-2.4,15.7c0.3,1.9,3.2,1.1,2.9-0.8c-0.6-3.8-0.3-8.1,1.2-11.7
			c2-4.7,5.9-5,10.1-2.7C39.1,29.4,40.6,26.8,38.9,25.8L38.9,25.8z"/>
	</g>
</g>
<g>
	<g>
		<path d="M45.7,32.8c2.1,2.6,4.7,6.1,4.7,9.6c0,1.9,3,1.9,3,0c0-4.4-3-8.5-5.6-11.7C46.6,29.2,44.5,31.3,45.7,32.8L45.7,32.8z"/>
	</g>
</g>
<g>
	<g>
		<path d="M28.9,12.7c-1.1,0-1.8-0.1-1.6-1.1c0.2-1,1.1-2.1,2.2-2.2c0.9-0.1,1.5,0.5,1.6,1.3c0.2,1.3-1,1.9-2.1,2.1
			c-1.9,0.3-1.1,3.2,0.8,2.9c2.6-0.5,4.6-2.5,4.3-5.2c-0.3-2.5-2.4-4.4-4.9-4.1c-2.4,0.3-4.4,2.5-4.8,4.9c-0.4,2.8,1.9,4.6,4.5,4.4
			C30.9,15.6,30.9,12.6,28.9,12.7L28.9,12.7z"/>
	</g>
</g>
</svg>
