<?xml version="1.0" encoding="utf-8"?>
<!-- Generator: Adobe Illustrator 24.1.1, SVG Export Plug-In . SVG Version: 6.00 Build 0)  -->
<svg version="1.1" id="Layer_1" xmlns="http://www.w3.org/2000/svg" xmlns:xlink="http://www.w3.org/1999/xlink" x="0px" y="0px"
	 viewBox="0 0 100 125" style="enable-background:new 0 0 100 125;" xml:space="preserve">
<g>
	<path d="M51.4,39.4c-0.1-0.2-0.2-0.4-0.2-0.4c0-0.3-0.2-0.6-0.5-0.8c-0.2-0.1-0.3-0.2-0.4-0.2s-0.4-0.1-0.9-0.3
		c-0.5-0.2-0.9-0.3-1-0.4c-0.1,0-0.3-0.2-0.4-0.4c-0.1-0.2-0.3-0.4-0.4-0.4c-0.4-0.1-0.5-0.7-0.2-1.3c0.1-0.2,0.1-0.4,0.1-0.5
		c0-0.1,0.1-0.3,0.2-0.4c0.3-0.4,0.5-1.3,0.3-1.4c0,0-0.1-0.4-0.1-0.8c0-0.6,0-0.8-0.1-1c-0.2-0.4-0.6-0.7-1-0.7
		c-0.2,0-0.5-0.1-0.5-0.2c-0.1-0.1-0.3-0.2-0.6-0.2c-0.8,0-1.6,0.5-2.1,1.1c-0.3,0.5-0.4,1-0.4,2.1c0,0.6,0,0.7,0.2,0.9
		c0.1,0.1,0.2,0.3,0.2,0.3c0,0,0.1,0.1,0.1,0.2c0.1,0.1,0.2,0.3,0.2,0.5c0,0.2,0.1,0.4,0.2,0.5c0.1,0.1,0.1,0.3,0.1,0.4
		c0,0.2,0,0.3-0.2,0.4c-0.1,0-0.3,0.2-0.5,0.4c-0.3,0.3-0.9,0.6-2.4,0.9c-0.5,0.1-0.9,0.2-0.9,0.3c-0.1,0.1-0.3,0.7-0.4,1.3
		c0,0.2-0.1,0.5-0.1,0.5c-0.1,0.1-0.4,1.9-0.4,2.1v0.2h6.2h6.2l0-0.3C51.7,40.2,51.6,39.7,51.4,39.4z"/>
	<path d="M39.3,83.1c-0.1-0.3-0.2-0.6-0.2-0.7c0-0.5-0.2-0.9-0.7-1.2c-0.3-0.2-0.5-0.3-0.6-0.3c0,0-0.7-0.2-1.4-0.5
		c-0.7-0.3-1.4-0.5-1.6-0.6c-0.2,0-0.5-0.3-0.7-0.6c-0.2-0.3-0.5-0.5-0.6-0.6c-0.6-0.2-0.7-1.1-0.3-2c0.1-0.3,0.2-0.6,0.2-0.7
		c0-0.1,0.2-0.4,0.3-0.6c0.5-0.6,0.8-2,0.5-2.1c-0.1,0-0.1-0.6-0.1-1.2c0-0.9,0-1.3-0.2-1.6c-0.3-0.6-0.9-1-1.6-1.1
		c-0.3-0.1-0.7-0.2-0.9-0.3c-0.2-0.2-0.4-0.2-0.9-0.2c-1.2,0-2.6,0.7-3.2,1.7c-0.5,0.7-0.6,1.5-0.6,3.3c0,0.9,0.1,1.1,0.3,1.4
		c0.1,0.2,0.3,0.4,0.3,0.5c0,0.1,0.1,0.2,0.2,0.3c0.1,0.1,0.3,0.4,0.3,0.7c0,0.3,0.2,0.6,0.2,0.7c0.1,0.1,0.2,0.4,0.2,0.6
		c0,0.4,0,0.4-0.4,0.5c-0.2,0.1-0.5,0.3-0.8,0.6c-0.5,0.5-1.5,0.9-3.7,1.3c-0.7,0.1-1.4,0.3-1.4,0.4c-0.2,0.2-0.5,1.1-0.6,2
		c-0.1,0.4-0.1,0.7-0.2,0.8c-0.1,0.1-0.6,2.9-0.6,3.3V87h9.8H40L40,86.5C39.7,84.2,39.5,83.5,39.3,83.1z"/>
	<path d="M27.8,58.4c0.9-0.1,1.6-0.8,1.5-1.7c-0.1-0.9-0.8-1.6-1.7-1.5c-7.6,0.5-14.7,5-18.5,11.6c-0.4,0.8-0.2,1.8,0.6,2.2
		c0.5,0.3,1.2,0.3,1.7,0c0.2-0.1,0.4-0.3,0.6-0.6C15.1,62.7,21.3,58.8,27.8,58.4z"/>
	<path d="M27.4,51.9c0.9-0.1,1.6-0.8,1.5-1.7c-0.1-0.9-0.8-1.6-1.7-1.5c-9.7,0.6-19,6.4-23.8,14.9c-0.4,0.8-0.2,1.8,0.6,2.2
		c0.5,0.3,1.2,0.3,1.7,0c0.2-0.1,0.4-0.3,0.6-0.6C10.5,57.5,18.7,52.4,27.4,51.9z"/>
	<path d="M84.8,56.7c-0.1-0.3-0.2-0.6-0.2-0.7c0-0.5-0.2-0.9-0.7-1.2c-0.3-0.2-0.5-0.3-0.6-0.3s-0.7-0.2-1.4-0.5
		c-0.7-0.3-1.4-0.5-1.6-0.6c-0.2,0-0.5-0.3-0.7-0.6c-0.2-0.3-0.5-0.5-0.6-0.6c-0.6-0.2-0.7-1.1-0.3-2c0.1-0.3,0.2-0.6,0.2-0.7
		c0-0.1,0.2-0.4,0.3-0.6c0.5-0.6,0.8-2,0.5-2.1c-0.1,0-0.1-0.6-0.1-1.2c0-0.9-0.1-1.3-0.2-1.6c-0.3-0.6-0.9-1-1.6-1.1
		c-0.3-0.1-0.7-0.2-0.9-0.3c-0.2-0.2-0.4-0.2-0.9-0.2c-1.2,0-2.6,0.7-3.2,1.7c-0.5,0.7-0.6,1.5-0.6,3.3c0,0.9,0.1,1.1,0.3,1.4
		c0.1,0.2,0.3,0.4,0.3,0.5s0.1,0.2,0.2,0.3s0.3,0.4,0.3,0.7c0,0.3,0.2,0.6,0.2,0.7c0.1,0.1,0.2,0.4,0.2,0.6c0,0.4,0,0.4-0.4,0.5
		c-0.2,0.1-0.5,0.3-0.8,0.6c-0.5,0.5-1.5,0.9-3.7,1.3c-0.7,0.1-1.4,0.3-1.4,0.4c-0.2,0.2-0.5,1.1-0.6,2c-0.1,0.4-0.1,0.7-0.2,0.8
		c-0.1,0.1-0.6,2.9-0.6,3.3v0.3h9.8h9.8l-0.1-0.5C85.2,57.9,85,57.1,84.8,56.7z"/>
	<path d="M75.7,35.5c-6.7,0-12.5,3.8-15.4,9.3L55.6,42c0.7-1.5,1.2-3.2,1.2-5c0-6.1-5-11.2-11.2-11.2c-6.1,0-11.2,5-11.2,11.2
		s5,11.2,11.2,11.2c3.9,0,7.3-2,9.3-5l4.8,2.9c-0.9,2.1-1.4,4.4-1.4,6.9c0,2.9,0.7,5.7,2,8.1L46.2,72.4c-2.7-6.2-8.9-10.6-16-10.6
		c-9.6,0-17.5,7.8-17.5,17.4c0,9.6,7.8,17.4,17.5,17.4s17.4-7.8,17.4-17.4c0-1.4-0.2-2.8-0.5-4.1l14.6-11.8c3.2,4.2,8.2,7,13.9,7
		c9.6,0,17.4-7.8,17.4-17.5C93.2,43.4,85.3,35.5,75.7,35.5z M45.6,46.4c-5.2,0-9.4-4.2-9.4-9.4c0-5.2,4.2-9.4,9.4-9.4
		c5.2,0,9.4,4.2,9.4,9.4C55,42.2,50.8,46.4,45.6,46.4z M30.2,94c-8.1,0-14.7-6.6-14.7-14.7s6.6-14.7,14.7-14.7s14.7,6.6,14.7,14.7
		S38.3,94,30.2,94z M75.7,67.7C67.6,67.7,61,61.1,61,53c0-8.1,6.6-14.7,14.7-14.7S90.4,44.9,90.4,53C90.4,61.1,83.8,67.7,75.7,67.7z
		"/>
</g>
</svg>
