<?xml version="1.0" encoding="utf-8"?>
<!-- Generator: Adobe Illustrator 24.1.1, SVG Export Plug-In . SVG Version: 6.00 Build 0)  -->
<svg version="1.1" id="Layer_1" xmlns="http://www.w3.org/2000/svg" xmlns:xlink="http://www.w3.org/1999/xlink" x="0px" y="0px"
	 viewBox="0 0 64 80" style="enable-background:new 0 0 64 80;" xml:space="preserve">
<style type="text/css">
	.st0{fill-rule:evenodd;clip-rule:evenodd;}
</style>
<g>
	<path class="st0" d="M58.6,31.8c-3.7-10.7-14.4-19.3-29.5-18c-3.3,0.3-7.1,1.9-9.8,2.6c-1.2,1.4-1.8,1-3.8,3.1c0-1,1.1-0.9,1.4-1.7
		c-2.1,1.9-3.5,1.9-4.3,4.3c-0.7,0,0.6-0.7-0.5-0.5c0,1.4-1.7,1.1-1.2,2.9c-1.1-0.4-1.6,0.9-2.4,2.2c-1.7,2.7-3,6.7-2.6,10.1
		c-0.3-0.1-0.1-0.7-0.5-0.7c-0.6,0.8,0.2,1.8-0.2,2.4c-0.1,0-0.2,0-0.2,0c0,1.3,0,2.6,0,3.8c1.9,14.6,10.8,24,25.9,26.2
		c1.4,0,2.7,0,4.1,0C51,67,65,50.1,58.6,31.8z M31.5,16c8.2-0.1,13.7,2.5,18,6.2c-1.2,1.8-3.5,3.7-5,4.3c-0.2,0.2,0.1,0.8-0.5,1.2
		c-0.4,0-0.5-0.3-1-0.2c0.4,0.5,0.4,0.2,0.2,1c-0.5,0.1-0.6-0.2-1-0.2c-0.3,0.5-1.4,1.5-1,1.9c-1.3,0.2-3.7,2.3-3.6,3.8
		c-1.5-0.1-3.3,2.9-4.8,4.3c-2.4-1.6-3.8-4.1-6.5-6C30.5,28,32,22.9,31.5,16z M19.9,20.5c0.1-0.3,0.1-0.6,0.7-1
		c-0.2,1.2,1.3,0.4,1.4-0.7c1,0.5,2.5-0.1,2.6-1.2c0.8,1,2.3-0.8,4.1-0.5c0,5.5-1.7,10.1-4.3,13.4c-3-2.6-6-5.2-8.4-8.4
		C17.4,21.4,18.9,20,19.9,20.5z M14.7,24.1c1.3,2.1,3.4,3.4,3.1,4.8c0.2,0.2,1.1,0.9,1.2,0.5c-0.1,1.1,2.1,2.2,2.6,2.6
		c-3.2,3.5-8.7,5.3-13.4,5C9.5,31.9,10.9,26.9,14.7,24.1z M14.7,57.5c-1.8,0-5.9-8.9-6.5-12.2c-0.3-1.7-0.6-3.9-0.2-5.8
		c3.7,0,6.8,1,8.6-1c0.7,0.2-0.1,0.8-0.2,1c0.5,0,0.8-0.2,0.7-0.7c0.5,1.2,2.4-0.7,2.2-1c1.3,0.4,3.6-1.4,4.6-2.9
		c2.6,1.6,4.8,4.2,6.5,6c-2.4,3.3-6.7,6-9.4,9.4c-0.3,0.4-0.1,1-0.5,1.4c-0.1,0.1-0.6-0.1-0.7,0C19.1,52.5,15.4,57.5,14.7,57.5z
		 M34.1,65.7c-8.2,0.1-13.7-2.5-18-6.2c1.8-3,5.1-3.7,6.2-6.2c1.8,0.4,1.6-0.6,2.2-1.9c1.5-0.1,3.1-2,3.6-3.8
		c1.5,0.4,3.2-2.8,4.6-4.1c2.7,1.9,3.9,4,6.5,6C35.1,53.6,33.6,58.7,34.1,65.7z M44.9,62.1c0.1-0.9-1.5-0.4-1.4,0.7
		c-2.3-0.1-3.7,1.4-6.2,1.9c-1.4-4.3,1.4-10.3,3.8-13.7c3,2.6,6,5.2,8.4,8.4C47.9,61,46.3,60.8,44.9,62.1z M50.9,57.5
		c-0.8-1.7-3.3-2.9-3.1-4.8c-1-0.7-2-1.6-2.6-2.6c-0.7,0-1.2,0-0.7-0.5c-0.7-0.9,2.6-1.8,3.1-3.1c3.6-0.8,6.8-2.4,9.8-1.9
		C56.2,49.8,54.6,54.7,50.9,57.5z M51.2,42.4c-0.2-0.2-0.4-0.4-0.5-0.7c0.2,0.5-2.2,1.7-2.6,0.7c-0.8,0.6-2,0.8-1.7,1.4
		c-1.5-0.5-3.6,1.4-4.6,2.9c-2.6-1.6-4.8-4.2-6.5-6c1.7-1.2,2.5-2.9,3.8-4.3c0.7-0.7,1.8-0.8,2.4-1.7c1.9-2.7,4.8-5.4,7.4-8.2
		c0.6-0.6,1.6-2.4,1.9-2.4c0.1,0,2,1.8,2.4,2.4c2.5,3.6,4.7,9.5,4.6,15.6C54.9,42.4,53.1,41.1,51.2,42.4z"/>
</g>
</svg>
