<?xml version="1.0" encoding="utf-8"?><!-- Generator: Adobe Illustrator 24.1.1, SVG Export Plug-In . SVG Version: 6.00 Build 0)  -->
<svg version="1.1" id="Layer_1" xmlns="http://www.w3.org/2000/svg" xmlns:xlink="http://www.w3.org/1999/xlink" x="0px" y="0px" viewBox="0 0 846.7 1058.3" style="enable-background:new 0 0 846.7 1058.3;" xml:space="preserve">
	<g>
		<path class="st0" d="M389,615.9c16.7-4.8,93.4-29.9,169.4-105.8c22.4-22.4,37.6-44.4,47.9-64.8c-17.6-8.7-34.1-20.4-48.7-35.1
		c-14.6-14.6-26.3-31.1-35.1-48.7c-20.4,10.3-42.5,25.6-64.8,47.9c-76,76-101.1,152.6-105.8,169.4c-55.9-25.3-109,47.9-100.6,67.7
		l35-11.1c0,0-47.7,50-48.3,94.4c44.4-0.7,94.4-48.3,94.4-48.3l-11.1,35C341.1,724.9,414.3,671.8,389,615.9L389,615.9z M363.5,604.2
		L255.5,712.3c7.3-24.4,26.5-51.3,41.3-66.9l38.8-40.8l-63.8,20.2c0.6-1,1.2-1.9,1.6-2.5c7-10.2,16.7-19.7,27.3-26
		c4.4-2.6,9-4.8,13.9-6.2C333.6,584.3,349.7,591,363.5,604.2L363.5,604.2z M407.4,430.4c-98.5-15.9-166.8,58.7-166.8,58.7
		s61.6-9.5,96.3,25.2c3.3,3.3,6.8,6.6,10.3,9.9C363,491.3,384.7,458.5,407.4,430.4L407.4,430.4z M537.4,560.3
		c15.9,98.5-58.7,166.8-58.7,166.8s9.5-61.6-25.2-96.3c-3.3-3.3-6.6-6.8-9.9-10.3C476.5,604.8,509.2,583,537.4,560.3L537.4,560.3z
		 M617.9,417.5c14.6-43.9,7.3-74.9,7.3-74.9s-31-7.3-74.9,7.3c7.2,14.1,16.7,27.3,28.5,39.1C590.6,400.7,603.8,410.2,617.9,417.5z"/>
	</g>
</svg>