<?xml version="1.0" encoding="utf-8"?>
<!-- Generator: Adobe Illustrator 24.1.1, SVG Export Plug-In . SVG Version: 6.00 Build 0)  -->
<svg version="1.1" id="Layer_1" xmlns="http://www.w3.org/2000/svg" xmlns:xlink="http://www.w3.org/1999/xlink" x="0px" y="0px"
	 viewBox="0 0 100 125" style="enable-background:new 0 0 100 125;" xml:space="preserve">
<path d="M16.1,77.6h3v9c0,1.7,1.3,3,3,3s3-1.3,3-3v-9h3c1.7,0,3-1.3,3-3v-30c0-1.7-1.3-3-3-3h-3v-9c0-1.7-1.3-3-3-3s-3,1.3-3,3v9h-3
	c-1.7,0-3,1.3-3,3v30C13.1,76.2,14.4,77.6,16.1,77.6z M19.1,47.6h6v24h-6V47.6z"/>
<path d="M43.1,95.6h3v9c0,1.7,1.3,3,3,3s3-1.3,3-3v-9h3c1.7,0,3-1.3,3-3v-21c0-1.7-1.3-3-3-3h-3v-9c0-1.7-1.3-3-3-3s-3,1.3-3,3v9h-3
	c-1.7,0-3,1.3-3,3v21C40.1,94.2,41.4,95.6,43.1,95.6z M46.1,74.6h6v15h-6V74.6z"/>
<path d="M70.1,83.6h3v9c0,1.7,1.3,3,3,3s3-1.3,3-3v-9h3c1.7,0,3-1.3,3-3v-42c0-1.7-1.3-3-3-3h-3v-9c0-1.7-1.3-3-3-3s-3,1.3-3,3v9h-3
	c-1.7,0-3,1.3-3,3v42C67.1,82.2,68.4,83.6,70.1,83.6z M73.1,41.6h6v36h-6V41.6z"/>
</svg>
