<svg xmlns="http://www.w3.org/2000/svg" viewBox="0 0 68 68">
    <g id="Layer_2" data-name="Layer 2" transform="translate(0.05 0.05)">
        <g id="invisible_box" data-name="invisible box">
            <rect id="Rectangle_29" data-name="Rectangle 29" width="68" height="68" transform="translate(-0.05 -0.05)" fill="none"/>
        </g>
        <g id="icons_Q2" data-name="icons Q2" transform="translate(5.658 5.658)">
            <path id="Path_24" data-name="Path 24" d="M57.471,9.658H29.038A8.77,8.77,0,0,0,20.975,4a8.488,8.488,0,0,0-7.922,5.658H7.112A2.971,2.971,0,0,0,4,12.488a2.971,2.971,0,0,0,3.112,2.829h5.941a8.488,8.488,0,0,0,7.922,5.658,8.77,8.77,0,0,0,8.063-5.658H57.471a2.971,2.971,0,0,0,3.112-2.829,2.971,2.971,0,0,0-3.112-2.829Zm-36.5,5.658A2.829,2.829,0,1,1,23.8,12.488,2.829,2.829,0,0,1,20.975,15.317Z" transform="translate(-4 -4)" fill="#fe7179"/>
            <path id="Path_25" data-name="Path 25" d="M57.388,23.658h-5.8A8.77,8.77,0,0,0,43.525,18,8.488,8.488,0,0,0,35.6,23.658H7.029a2.829,2.829,0,1,0,0,5.658H35.6a8.487,8.487,0,0,0,7.922,5.658,8.77,8.77,0,0,0,8.063-5.658h5.8a2.829,2.829,0,1,0,0-5.658ZM43.525,29.317a2.829,2.829,0,1,1,2.829-2.829A2.829,2.829,0,0,1,43.525,29.317Z" transform="translate(-3.917 1.804)" fill="#fe7179"/>
            <path id="Path_26" data-name="Path 26" d="M57.388,37.658H33.2A8.77,8.77,0,0,0,25.136,32a8.488,8.488,0,0,0-7.922,5.658H7.029a2.829,2.829,0,0,0,0,5.658H17.214a8.487,8.487,0,0,0,7.922,5.658A8.77,8.77,0,0,0,33.2,43.317H57.388a2.829,2.829,0,0,0,0-5.658ZM25.136,43.317a2.829,2.829,0,1,1,2.829-2.829A2.829,2.829,0,0,1,25.136,43.317Z" transform="translate(-3.917 7.608)" fill="#fe7179"/>
        </g>
    </g>
</svg>