<svg id="Layer_1" data-name="Layer 1"
    xmlns="http://www.w3.org/2000/svg" viewBox="0 0 139.54 124.27">
    <!-- <defs>
        <style>.cls-1{fill:#828282;}</style>
    </defs> -->
    <path class="cls-1" d="M617,481.84a8.74,8.74,0,0,0-.5-1,55.31,55.31,0,0,0-1.31-2.33,8.19,8.19,0,0,0-.82-1.33,8,8,0,0,0-.94-1.43,7.89,7.89,0,0,0-1.06-1.49,7.68,7.68,0,0,0-1.2-1.57,8.15,8.15,0,0,0-1.32-1.61,8,8,0,0,0-1.46-1.62,8.34,8.34,0,0,0-1.61-1.64,52.44,52.44,0,0,0-3.67-3.24,7.77,7.77,0,0,0-2.08-1.56,49,49,0,0,0-7.14-4.22,46.77,46.77,0,0,0-7.46-2.85,55,55,0,0,0-7-1.45h-.16a8.58,8.58,0,0,0-1.77-.24H577a7.89,7.89,0,0,0-1.39-.15l-.81,0a8.59,8.59,0,0,0-1-.09,10,10,0,0,0-1.1.06c-.22,0-.45,0-.68,0a7.53,7.53,0,0,0-1.35.09h-.36a7.68,7.68,0,0,0-1.6.14h0a7.72,7.72,0,0,0-1.81.19,7.38,7.38,0,0,0-1.76.22,7.29,7.29,0,0,0-1.63.25,7.85,7.85,0,0,0-1.55.27,7.49,7.49,0,0,0-1.41.28,9.4,9.4,0,0,0-1.28.27,8.43,8.43,0,0,0-1.13.26,9.19,9.19,0,0,0-1,.22,8.08,8.08,0,0,0-1,.24,8.92,8.92,0,0,0-1.13.29,8.54,8.54,0,0,0-1.25.35,8.26,8.26,0,0,0-1.39.42,7.44,7.44,0,0,0-1.47.48,7.8,7.8,0,0,0-1.58.56,8.21,8.21,0,0,0-.88.28c-.28-.11-.56-.2-.85-.29a58.86,58.86,0,0,0-3-1.09,7.16,7.16,0,0,0-1.38-.44,7.5,7.5,0,0,0-1.25-.37,6.87,6.87,0,0,0-1.12-.32,101.31,101.31,0,0,0-1.92-.49,8.62,8.62,0,0,0-1.14-.28,7.79,7.79,0,0,0-1.27-.29,7.22,7.22,0,0,0-1.41-.31,7.64,7.64,0,0,0-1.54-.3,60.62,60.62,0,0,0-3.38-.53,7.64,7.64,0,0,0-1.8-.21h-.05a7.59,7.59,0,0,0-1.59-.17h-.37a7.53,7.53,0,0,0-1.35-.12,5.27,5.27,0,0,0-.68,0,6.51,6.51,0,0,0-1.09-.08,6.81,6.81,0,0,0-1,.07,7.34,7.34,0,0,0-.81-.05,8,8,0,0,0-1.4.13l-.49,0a8,8,0,0,0-1.78.21h-.16a7.8,7.8,0,0,0-2.17.31,48.12,48.12,0,0,0-4.83,1,7.37,7.37,0,0,0-2.47.73,7.86,7.86,0,0,0-2.5.9,7.58,7.58,0,0,0-2.54,1.09,47,47,0,0,0-4.95,2.62,48.51,48.51,0,0,0-6.31,4.56,8,8,0,0,0-1.79,1.6,7.82,7.82,0,0,0-1.63,1.62,49.88,49.88,0,0,0-2.84,3.18,7.93,7.93,0,0,0-1.23,1.54,8.25,8.25,0,0,0-1.08,1.48,8,8,0,0,0-1,1.41,8.57,8.57,0,0,0-.84,1.31,42.06,42.06,0,0,0-1.36,2.32,7.72,7.72,0,0,0-.51.94,7.76,7.76,0,1,0,13.76,7.15,7.12,7.12,0,0,0,.36-.67c.15-.25.3-.51.43-.78a9,9,0,0,0,.5-.85,8.45,8.45,0,0,0,.6-.95,6.71,6.71,0,0,0,.67-1,7.36,7.36,0,0,0,.77-1.06,7.49,7.49,0,0,0,.85-1.08,7.75,7.75,0,0,0,.94-1.12,7.46,7.46,0,0,0,1-1.13,8,8,0,0,0,1.13-1.12,7.16,7.16,0,0,0,1.22-1.11,38.38,38.38,0,0,1,2.75-2.13,7.36,7.36,0,0,0,1.52-1,7.23,7.23,0,0,0,1.64-.95,7.42,7.42,0,0,0,1.72-.84,7.91,7.91,0,0,0,1.72-.72,8.08,8.08,0,0,0,1.69-.6,7.58,7.58,0,0,0,1.66-.49,8,8,0,0,0,1.64-.38,7.88,7.88,0,0,0,1.61-.29,7.51,7.51,0,0,0,1.58-.2h.16a8,8,0,0,0,1.39-.12h.5a7,7,0,0,1,1.83,0c.23,0,.45,0,.68,0a7.88,7.88,0,0,0,1.09.08h.37a7.37,7.37,0,0,0,1.35.12h0a7.66,7.66,0,0,0,1.36.16,8.12,8.12,0,0,0,1.31.2,7.25,7.25,0,0,0,1,.18,37.07,37.07,0,0,1-2.69,2.46,56.06,56.06,0,0,0-3.92,4,52.48,52.48,0,0,0-4.51,5.86,52.45,52.45,0,0,0-2.34,3.87,7.82,7.82,0,0,0-1,1.92,7.6,7.6,0,0,0-.91,1.88,7.69,7.69,0,0,0-.8,1.86,7.36,7.36,0,0,0-.73,1.84,7.6,7.6,0,0,0-.63,1.77,7.27,7.27,0,0,0-.55,1.73,7.84,7.84,0,0,0-.49,1.67,66,66,0,0,0-.76,3.14,36.09,36.09,0,0,0-.57,3.3,8,8,0,0,0-.26,2s0,.09,0,.13a7.66,7.66,0,0,0-.17,1.59c0,.18,0,.36,0,.54a9.12,9.12,0,0,0-.09,1.19,7,7,0,0,0,.06.93c0,.26,0,.53,0,.79a7.53,7.53,0,0,0,.12,1.35c0,.12,0,.25,0,.37a7.76,7.76,0,0,0,.2,1.75,7.5,7.5,0,0,0,.31,2.12,7.39,7.39,0,0,0,.42,2.1,35.59,35.59,0,0,0,1.19,4.14,7.73,7.73,0,0,0,.76,2,8.08,8.08,0,0,0,.85,1.92,8.29,8.29,0,0,0,.95,1.85,7.73,7.73,0,0,0,1.1,1.86,7.81,7.81,0,0,0,1.3,1.95,8.29,8.29,0,0,0,1.65,2.12,7.83,7.83,0,0,0,1.85,2.16,39.9,39.9,0,0,0,3.88,3.69,7.59,7.59,0,0,0,2,1.54,37.29,37.29,0,0,0,5.81,3.47,7.39,7.39,0,0,0,1.83.83,7.75,7.75,0,0,0,1.77.69,7.46,7.46,0,0,0,1.67.56,7.92,7.92,0,0,0,1.55.45,8.55,8.55,0,0,0,1.43.36,7.47,7.47,0,0,0,1.33.27,95.45,95.45,0,0,0,3.62.45l.47,0a7.12,7.12,0,0,0,1.39.13h.16v0l.35,0a8.1,8.1,0,0,0,1.4-.1l.47,0a7.81,7.81,0,0,0,1.75-.17,7.72,7.72,0,0,0,1.87-.22,7.38,7.38,0,0,0,1.34-.25,7,7,0,0,0,1.44-.33,8.15,8.15,0,0,0,1.56-.42,7.39,7.39,0,0,0,1.67-.53,7.75,7.75,0,0,0,1.78-.66,40.51,40.51,0,0,0,3.77-1.75,7.33,7.33,0,0,0,2-1.12,7.76,7.76,0,0,0,2-1.3,7.94,7.94,0,0,0,2-1.5,7.75,7.75,0,0,0,2-1.71,7.65,7.65,0,0,0,1.94-1.91,51.67,51.67,0,0,0,3.58-4.23,7.61,7.61,0,0,0,1.34-1.92,7.52,7.52,0,0,0,1.13-1.84,8.25,8.25,0,0,0,1-1.83,7.81,7.81,0,0,0,.88-1.9,7.41,7.41,0,0,0,.8-2,36.75,36.75,0,0,0,1.72-6.22,7.77,7.77,0,0,0,.35-2.11,7.68,7.68,0,0,0,.23-1.74c0-.13,0-.25,0-.38A7.43,7.43,0,0,0,586,513c0-.27,0-.53,0-.79s.07-.62.08-.93a7.89,7.89,0,0,0-.08-1.2,4.58,4.58,0,0,0,0-.53,8.33,8.33,0,0,0-.13-1.59v-.14a7.25,7.25,0,0,0-.22-2,46.09,46.09,0,0,0-.83-4.84,7.23,7.23,0,0,0-.39-1.62,7.69,7.69,0,0,0-.45-1.68,53.21,53.21,0,0,0-1.12-3.52,7.93,7.93,0,0,0-.7-1.85,7.3,7.3,0,0,0-.77-1.87,8.06,8.06,0,0,0-.87-1.91,61.12,61.12,0,0,0-2.06-3.88,7.61,7.61,0,0,0-1.19-1.95,7.73,7.73,0,0,0-1.32-2,8.08,8.08,0,0,0-1.43-2,7.9,7.9,0,0,0-1.66-2,7.69,7.69,0,0,0-1.88-2.1,7.53,7.53,0,0,0-2-2,8.06,8.06,0,0,0-2-1.85c-.2-.23-.41-.44-.63-.65a7.55,7.55,0,0,0,.95-.17,8.09,8.09,0,0,0,1.31-.17,7.65,7.65,0,0,0,1.36-.14h0a7.53,7.53,0,0,0,1.35-.09h.36a8,8,0,0,0,1.1-.05l.68,0,.81,0a8.41,8.41,0,0,0,1,.09h.49a8,8,0,0,0,1.39.15h.16a7.53,7.53,0,0,0,1.58.23,7.66,7.66,0,0,0,1.61.32,33.95,33.95,0,0,1,3.28.92,7.54,7.54,0,0,0,1.68.63,7.39,7.39,0,0,0,1.7.75,7.68,7.68,0,0,0,1.71.88,7.56,7.56,0,0,0,1.62,1,7.42,7.42,0,0,0,1.51,1,7.31,7.31,0,0,0,1.4,1.07,37.81,37.81,0,0,1,2.51,2.24,33.64,33.64,0,0,1,2.13,2.29,8.26,8.26,0,0,0,.92,1.13,38.3,38.3,0,0,1,1.58,2.17,8.26,8.26,0,0,0,.65,1,7.7,7.7,0,0,0,.59,1,6.53,6.53,0,0,0,.48.86q.2.41.42.78a7.43,7.43,0,0,0,.35.69A7.76,7.76,0,1,0,617,481.84Zm-50.4,13.39a8.42,8.42,0,0,0,.63,1.4,7.9,7.9,0,0,0,.57,1.37,7.65,7.65,0,0,0,.49,1.34,8.18,8.18,0,0,0,.44,1.32,7.7,7.7,0,0,0,.38,1.29,8.84,8.84,0,0,0,.33,1.25,7.79,7.79,0,0,0,.28,1.18,7.23,7.23,0,0,0,.24,1.16,7.75,7.75,0,0,0,.19,1.09,8,8,0,0,0,.2,1.22,7.23,7.23,0,0,0,.13,1.33v.14a6.73,6.73,0,0,0,.07,1.19,4.84,4.84,0,0,0,0,.53,6.89,6.89,0,0,0,0,.79,7.3,7.3,0,0,0-.07.94v.37a8.08,8.08,0,0,0-.14,1.31,8.76,8.76,0,0,0-.21,1.28,7.54,7.54,0,0,0-.27,1.27,7.45,7.45,0,0,0-.35,1.25,22.91,22.91,0,0,1-.89,2.42,24.06,24.06,0,0,1-1.14,2.27,7.37,7.37,0,0,0-.67,1.12,7,7,0,0,0-.79,1.16,8,8,0,0,0-1,1.36,7.78,7.78,0,0,0-1.21,1.35,7.44,7.44,0,0,0-1.21,1.17,8,8,0,0,0-1.22,1,7.32,7.32,0,0,0-1.19.88,8,8,0,0,0-1.2.78,7.33,7.33,0,0,0-1.16.65,8.74,8.74,0,0,0-1.15.56,9,9,0,0,0-1.11.47,7.73,7.73,0,0,0-1,.38,6.61,6.61,0,0,0-1,.32,7.51,7.51,0,0,0-1,.25c-.29.05-.58.11-.87.19s-.55.09-.83.15a15.59,15.59,0,0,1-2.14.24,3.59,3.59,0,0,0-.47,0h-.78l-.46,0a8.07,8.07,0,0,0-1.3-.13,8.17,8.17,0,0,0-.84-.14,7.63,7.63,0,0,0-.83-.17c-.28-.08-.57-.15-.86-.21s-.63-.19-1-.26a7.05,7.05,0,0,0-1-.34,8.76,8.76,0,0,0-1-.4,7.18,7.18,0,0,0-1.1-.48,7.09,7.09,0,0,0-1.13-.58,7.49,7.49,0,0,0-1.16-.68,6.75,6.75,0,0,0-1.18-.79,7.42,7.42,0,0,0-1.18-.91,7.92,7.92,0,0,0-1.19-1,8.37,8.37,0,0,0-1.19-1.19,7.51,7.51,0,0,0-1.2-1.37,7.19,7.19,0,0,0-1-1.38,8.17,8.17,0,0,0-.76-1.18,8.54,8.54,0,0,0-.66-1.13,8,8,0,0,0-.58-1.13,6.63,6.63,0,0,0-.52-1.15,7.46,7.46,0,0,0-.46-1.22,8.26,8.26,0,0,0-.39-1.22,7.75,7.75,0,0,0-.32-1.26,8.91,8.91,0,0,0-.25-1.27,9.11,9.11,0,0,0-.19-1.29,7,7,0,0,0-.12-1.3c0-.13,0-.25,0-.38a7.26,7.26,0,0,0-.06-.93,6.85,6.85,0,0,0,0-.79,4.61,4.61,0,0,0,0-.53,7.88,7.88,0,0,0,.09-1.2v-.13a8.33,8.33,0,0,0,.16-1.33,85.79,85.79,0,0,1,.43-2.3,8.87,8.87,0,0,0,.26-1.16,7.85,7.85,0,0,0,.3-1.18,8.41,8.41,0,0,0,.35-1.24,7.93,7.93,0,0,0,.4-1.28,7.36,7.36,0,0,0,.46-1.32,6.68,6.68,0,0,0,.52-1.33,6.9,6.9,0,0,0,.59-1.36,8.34,8.34,0,0,0,.66-1.38,8.7,8.7,0,0,0,.72-1.39,7.7,7.7,0,0,0,.8-1.4,8.1,8.1,0,0,0,.89-1.4,7.89,7.89,0,0,0,1-1.4,7.81,7.81,0,0,0,1-1.39,7.47,7.47,0,0,0,1.19-1.45,8.3,8.3,0,0,0,1.36-1.48,8,8,0,0,0,1.44-1.41,8.14,8.14,0,0,0,1.47-1.28,7.73,7.73,0,0,0,1.48-1.19,7.64,7.64,0,0,0,1.51-1.07,7.56,7.56,0,0,0,1.51-1,36,36,0,0,1,3-1.68,7.49,7.49,0,0,0,1.22-.56,8.66,8.66,0,0,0,1.19.57,36.77,36.77,0,0,1,3,1.74,8,8,0,0,0,1.49,1,8.08,8.08,0,0,0,1.49,1.1,7.4,7.4,0,0,0,1.46,1.21,7.51,7.51,0,0,0,1.45,1.31,7.64,7.64,0,0,0,1.41,1.43,8.32,8.32,0,0,0,1.33,1.51,7.88,7.88,0,0,0,1.17,1.47,7.71,7.71,0,0,0,1,1.4,7.6,7.6,0,0,0,.94,1.42,8.13,8.13,0,0,0,.86,1.42,7.45,7.45,0,0,0,.78,1.41A7.32,7.32,0,0,0,566.59,495.23Z" transform="translate(-478.46 -426.24)"/>
    <circle class="cls-1" cx="39.22" cy="9.24" r="9.24"/>
    <circle class="cls-1" cx="99.12" cy="9.79" r="9.24"/>
</svg>