<?xml version="1.0" encoding="utf-8"?>
<!-- Generator: Adobe Illustrator 24.2.3, SVG Export Plug-In . SVG Version: 6.00 Build 0)  -->
<svg version="1.1" id="Layer_1" xmlns="http://www.w3.org/2000/svg" xmlns:xlink="http://www.w3.org/1999/xlink" x="0px" y="0px"
	 viewBox="0 0 60 52.1" style="enable-background:new 0 0 60 52.1;" xml:space="preserve">
<g>
	<path d="M22.9,29.4c0,3.9,3.2,7.1,7.1,7.1s7.1-3.2,7.1-7.1c0-3.9-3.2-7.1-7.1-7.1S22.9,25.5,22.9,29.4z"/>
	<path d="M9.9,9.7c-11,11-11,29,0,40.1c0.6,0.6,1.3,0.8,2,0.8c0.7,0,1.4-0.3,2-0.8c1.1-1.1,1.1-2.9,0-4C5.1,37,5.1,22.6,14,13.7
		c8.8-8.8,23.2-8.8,32.1,0c8.8,8.8,8.8,23.2,0,32.1c-1.1,1.1-1.1,2.9,0,4c0.6,0.6,1.3,0.8,2,0.8c0.7,0,1.4-0.3,2-0.8
		c11-11,11-29,0-40.1C39-1.3,21-1.3,9.9,9.7z"/>
	<path d="M38.5,42.7c0.6,0.6,1.4,0.9,2.1,0.9s1.5-0.3,2.1-0.9c7-7,7-18.4,0-25.5C39.3,13.9,34.8,12,30,12s-9.3,1.9-12.7,5.3
		c-7,7-7,18.4,0,25.5c0.6,0.6,1.4,0.9,2.1,0.9s1.5-0.3,2.1-0.9c1.2-1.2,1.2-3.1,0-4.2c-4.7-4.7-4.7-12.3,0-17
		c2.3-2.3,5.3-3.5,8.5-3.5s6.2,1.2,8.5,3.5c4.7,4.7,4.7,12.3,0,17C37.3,39.6,37.3,41.5,38.5,42.7z"/>
</g>
</svg>
