<?xml version="1.0" encoding="utf-8"?><!-- Generator: Adobe Illustrator 24.2.3, SVG Export Plug-In . SVG Version: 6.00 Build 0)  -->
<svg version="1.1" id="b33088ad-dd09-4af5-9976-97f8029c702f" xmlns="http://www.w3.org/2000/svg" xmlns:xlink="http://www.w3.org/1999/xlink" x="0px" y="0px" viewBox="0 0 512 512" style="enable-background:new 0 0 512 512;" xml:space="preserve"><!-- <style type="text/css">
	.st0{fill:#231F20;}
	.st1{fill:none;stroke:#231F20;stroke-width:8;stroke-linecap:round;stroke-linejoin:round;}
	.st2{fill:none;stroke:#231F20;stroke-width:13;stroke-linejoin:round;}
</style> -->
	<g>
		<path class="st0" d="M118.6,398.7c-2.9,0-5.2,2.3-5.2,5.2c0,2.9,2.3,5.2,5.2,5.2c2.9,0,5.2-2.3,5.2-5.2l0,0
		C123.8,401.1,121.5,398.7,118.6,398.7C118.6,398.7,118.6,398.7,118.6,398.7z"/>
		<path class="st0" d="M118.6,382.4c-2.9,0-5.2,2.3-5.2,5.2c0,2.9,2.3,5.2,5.2,5.2c2.9,0,5.2-2.3,5.2-5.2l0,0
		C123.8,384.7,121.5,382.4,118.6,382.4z"/>
		<path class="st0" d="M118.6,366c-2.9,0-5.2,2.3-5.2,5.2c0,2.9,2.3,5.2,5.2,5.2c2.9,0,5.2-2.3,5.2-5.2l0,0
		C123.8,368.3,121.5,366,118.6,366z"/>
		<line class="st1" x1="144.7" y1="371.2" x2="190.5" y2="371.2"/>
		<line class="st1" x1="144.7" y1="387.6" x2="195.5" y2="387.6"/>
		<line class="st1" x1="144.7" y1="404" x2="200.1" y2="404"/>
		<path class="st2" d="M141.9,138.1l67.2,288.1h-97.1c-9.4,0-17-7.6-17-17V98.7c0-9.4,7.6-17,17-17h173.1l-124,26.1
		C147.4,110.7,138.7,124.4,141.9,138.1z"/>
		<polyline class="st2" points="209.2,426.2 209.4,427.4 214.7,426.2 	"/>
	</g>
	<g>
		<g>
			<path class="st0" d="M359.4,70.2c6.6,0,12.2,5,13.9,12l67.7,287.6c2.2,9.4-3.6,18.8-13,21l-192.6,45.3c-1.3,0.3-2.7,0.5-4,0.5
			c-7.9,0-15.1-5.4-17-13.5l-67.7-287.6c-2.1-9,3.2-18.1,11.9-18.1c0.4,0,0.7,0,1.1,0l192.6-45.3C354.7,70.8,357.1,70.2,359.4,70.2
			 M359.4,57.2c-4,0-7.9,0.9-11.7,2.7l-189.4,44.6c-7.5,0.1-14.5,3.5-19.2,9.4c-5.3,6.7-7.2,15.9-5.2,24.6l67.7,287.6
			c3.3,13.8,15.5,23.5,29.7,23.5c2.3,0,4.7-0.3,7-0.8l192.6-45.3c16.4-3.9,26.6-20.3,22.7-36.7L385.9,79.2
			C382.9,66.2,372,57.2,359.4,57.2L359.4,57.2z"/>
		</g>
		<path class="st0" d="M230.2,414.7c-2.8,0.7-4.6,3.5-3.9,6.3c0.7,2.8,3.5,4.6,6.3,3.9s4.6-3.5,3.9-6.3l0,0
		C235.9,415.8,233.1,414,230.2,414.7C230.3,414.7,230.2,414.7,230.2,414.7z"/>
		<path class="st0" d="M226.5,398.8c-2.8,0.7-4.6,3.5-3.9,6.3s3.5,4.6,6.3,3.9c2.8-0.7,4.6-3.5,3.9-6.3l0,0
		C232.1,399.8,229.3,398.1,226.5,398.8z"/>
		<path class="st0" d="M222.7,382.8c-2.8,0.7-4.6,3.5-3.9,6.3c0.7,2.8,3.5,4.6,6.3,3.9s4.6-3.5,3.9-6.3l0,0
		C228.4,383.9,225.6,382.2,222.7,382.8z"/>
		<path class="st0" d="M418.6,355.7c-3.1,0.7-5,3.8-4.3,7c0.7,3.1,3.8,5,7,4.3c3.1-0.7,5-3.8,4.3-7
		C424.8,356.9,421.7,355,418.6,355.7C418.6,355.7,418.6,355.7,418.6,355.7z"/>
		<line class="st1" x1="249.4" y1="381.9" x2="330.1" y2="362.9"/>
		<line class="st1" x1="344" y1="359.7" x2="355.3" y2="357"/>
		<line class="st1" x1="253.1" y1="397.9" x2="389.4" y2="365.8"/>
		<line class="st1" x1="256.9" y1="413.8" x2="375.8" y2="385.8"/>
		<path class="st0" d="M374.6,168.5c-4.5,1-7.2,5.5-6.2,10c1,4.5,5.5,7.2,10,6.2s7.2-5.5,6.2-10c0,0,0,0,0,0
		C383.5,170.3,379,167.5,374.6,168.5z"/>
		<path class="st0" d="M368.6,143.3c-4.5,1-7.2,5.5-6.2,10s5.5,7.2,10,6.2c4.5-1,7.2-5.5,6.2-10c0,0,0,0,0,0
		C377.6,145,373.1,142.2,368.6,143.3z"/>
		<path class="st0" d="M362.7,118c-4.5,1-7.2,5.5-6.2,10c1,4.5,5.5,7.2,10,6.2c4.5-1,7.2-5.5,6.2-10c0,0,0,0,0,0
		C371.6,119.7,367.1,116.9,362.7,118z"/>
		<path class="st0" d="M328.8,414.2c-0.4,0.1-0.8,0.2-1.1,0.4c-2.7,1.3-3.8,4.6-2.4,7.2c1.1,2.2,3.6,3.4,6,2.9
		c0.4-0.1,0.8-0.2,1.1-0.4c2.7-1.3,3.8-4.6,2.4-7.2C333.8,414.8,331.3,413.6,328.8,414.2z"/>
	</g>
</svg>