<?xml version="1.0" encoding="iso-8859-1"?>
<!-- Generator: Adobe Illustrator 18.0.0, SVG Export Plug-In . SVG Version: 6.00 Build 0)  -->
<!DOCTYPE svg PUBLIC "-//W3C//DTD SVG 1.1//EN" "http://www.w3.org/Graphics/SVG/1.1/DTD/svg11.dtd">
<svg version="1.1" id="Capa_1" xmlns="http://www.w3.org/2000/svg" xmlns:xlink="http://www.w3.org/1999/xlink" x="0px" y="0px"
	 viewBox="0 0 475.975 475.975" style="enable-background:new 0 0 475.975 475.975;" xml:space="preserve">
<path d="M468.552,113.759L362.22,7.424c-9.898-9.899-25.953-9.899-35.85-0.001l-8.688,8.685l43.611,43.61
	c4.898,4.898,4.898,12.844,0.001,17.74c-4.897,4.897-12.843,4.898-17.741,0l-43.609-43.61l-29.566,29.566l19.959,19.958
	c4.895,4.896,4.896,12.843,0,17.739c-4.897,4.897-12.845,4.896-17.74,0l-19.958-19.958l-29.567,29.566l19.959,19.958
	c4.896,4.896,4.896,12.844,0,17.74c-4.896,4.897-12.844,4.896-17.738,0l-19.959-19.958l-29.566,29.566l43.61,43.61
	c4.897,4.898,4.897,12.843,0,17.74c-4.897,4.897-12.843,4.897-17.739-0.001l-43.611-43.61l-29.566,29.567l19.959,19.958
	c4.895,4.895,4.895,12.842-0.002,17.739c-4.895,4.896-12.842,4.895-17.738-0.001l-19.957-19.958l-29.566,29.566l19.957,19.958
	c4.896,4.896,4.896,12.843,0,17.74c-4.896,4.897-12.844,4.896-17.74,0.001l-19.957-19.958l-29.566,29.566l43.609,43.61
	c4.898,4.898,4.898,12.843,0.001,17.74c-4.896,4.896-12.843,4.897-17.74-0.001l-43.61-43.61l-8.684,8.685
	c-9.899,9.898-9.898,25.951,0,35.849l106.334,106.335c9.897,9.897,25.951,9.898,35.849,0.001l318.945-318.946
	C478.45,139.709,478.449,123.656,468.552,113.759z"/>
<g>
</g>
<g>
</g>
<g>
</g>
<g>
</g>
<g>
</g>
<g>
</g>
<g>
</g>
<g>
</g>
<g>
</g>
<g>
</g>
<g>
</g>
<g>
</g>
<g>
</g>
<g>
</g>
<g>
</g>
</svg>
