<svg height="300px" width="300px" fill="#000000" xmlns="http://www.w3.org/2000/svg" xmlns:xlink="http://www.w3.org/1999/xlink" viewBox="0 0 48 48" version="1.1" x="0px" y="0px">
    <title>9.5</title>
    <desc>Created with Sketch.</desc>
    <g stroke="none" stroke-width="1" fill="none" fill-rule="evenodd">
        <g fill-rule="nonzero" fill="#000000">
            <g transform="translate(24.000000, 24.000000) rotate(-180.000000) translate(-24.000000, -24.000000) ">
                <path d="M21.3431458,24 L28.4184136,31.0752678 C29.1971426,31.8539968 29.2007075,33.113001 28.4142136,33.8994949 C27.633165,34.6805435 26.3674833,34.6811918 25.5899865,33.903695 L17.096305,25.4100135 C16.7076331,25.0213416 16.5120634,24.5130275 16.5114479,24.0035351 C16.5140414,23.4876987 16.7082535,22.978038 17.096305,22.5899865 L25.5899865,14.096305 C26.3687154,13.3175761 27.6277197,13.3140112 28.4142136,14.1005051 C29.1952621,14.8815536 29.1959104,16.1472354 28.4184136,16.9247322 L21.3431458,24 Z M24,48 C10.745166,48 0,37.254834 0,24 C0,10.745166 10.745166,0 24,0 C37.254834,0 48,10.745166 48,24 C48,37.254834 37.254834,48 24,48 Z M24,44 C35.045695,44 44,35.045695 44,24 C44,12.954305 35.045695,4 24,4 C12.954305,4 4,12.954305 4,24 C4,35.045695 12.954305,44 24,44 Z"></path>
            </g>
        </g>
    </g>
</svg>