<svg width="25" height="25" viewBox="0 0 25 25" fill="none" xmlns="http://www.w3.org/2000/svg">
<path fill-rule="evenodd" clip-rule="evenodd" d="M12.6855 4.52284C8.01237 4.52284 4.22401 8.3112 4.22401 12.9844C4.22401 14.3844 4.56341 15.7028 5.16375 16.8642C5.22019 16.9734 5.24965 17.0945 5.24965 17.2174V20.4203H8.45252C8.57544 20.4203 8.69657 20.4497 8.80576 20.5062C9.96708 21.1065 11.2856 21.4459 12.6855 21.4459C17.3587 21.4459 21.1471 17.6576 21.1471 12.9844C21.1471 8.3112 17.3587 4.52284 12.6855 4.52284ZM2.68555 12.9844C2.68555 7.46153 7.1627 2.98438 12.6855 2.98438C18.2084 2.98438 22.6855 7.46153 22.6855 12.9844C22.6855 18.5072 18.2084 22.9844 12.6855 22.9844C11.1018 22.9844 9.60203 22.6156 8.26942 21.9587H4.48042C4.05558 21.9587 3.71119 21.6143 3.71119 21.1895V17.4005C3.05429 16.0679 2.68555 14.5682 2.68555 12.9844Z" fill="#F0F0F0"/>
<path d="M10.6343 12.9844C10.6343 13.5508 10.1751 14.01 9.60862 14.01C9.04218 14.01 8.58298 13.5508 8.58298 12.9844C8.58298 12.4179 9.04218 11.9587 9.60862 11.9587C10.1751 11.9587 10.6343 12.4179 10.6343 12.9844Z" fill="#F0F0F0"/>
<path d="M13.7112 12.9844C13.7112 13.5508 13.252 14.01 12.6855 14.01C12.1191 14.01 11.6599 13.5508 11.6599 12.9844C11.6599 12.4179 12.1191 11.9587 12.6855 11.9587C13.252 11.9587 13.7112 12.4179 13.7112 12.9844Z" fill="#F0F0F0"/>
<path d="M16.7881 12.9844C16.7881 13.5508 16.3289 14.01 15.7625 14.01C15.196 14.01 14.7368 13.5508 14.7368 12.9844C14.7368 12.4179 15.196 11.9587 15.7625 11.9587C16.3289 11.9587 16.7881 12.4179 16.7881 12.9844Z" fill="#F0F0F0"/>
</svg>
