<svg width="113" height="36" viewBox="0 0 113 36" fill="none" xmlns="http://www.w3.org/2000/svg">
<path d="M15.8975 2.21833C10.1735 2.21833 5.9615 9.49033 5.9615 16.5823C5.9615 21.7303 8.5535 24.8623 12.8015 24.8623C16.2575 24.8623 18.8495 23.3863 21.3335 19.8583H21.5135C19.3175 24.6103 15.4655 27.3463 10.4255 27.3463C4.1975 27.3463 0.2735 23.1343 0.2735 17.2303C0.2735 8.41033 7.0775 1.42633 15.4655 1.42633C18.9575 1.42633 20.5055 2.72233 21.8735 2.72233C22.7375 2.72233 23.4575 2.25433 24.1415 1.67833L22.6655 9.81433H22.5935C21.6575 5.38633 19.7135 2.21833 15.8975 2.21833ZM23.2404 20.1463C23.2404 13.8823 28.2444 8.91433 34.0764 8.91433C38.4324 8.91433 41.7084 11.5423 41.7084 16.1503C41.7084 22.4143 36.7404 27.3463 30.8724 27.3463C26.5524 27.3463 23.2764 24.7543 23.2404 20.1463ZM36.7764 13.8823C36.7764 11.5423 36.2004 9.59833 34.1844 9.59833C32.0604 9.59833 30.2964 12.6223 29.1804 16.5103C28.5684 18.8503 28.2084 20.8303 28.2084 22.3783C28.2084 24.7543 28.7844 26.6983 30.8004 26.6983C32.9244 26.6983 34.6884 23.6383 35.7684 19.7503C36.4164 17.4463 36.7764 15.4303 36.7764 13.8823ZM50.1931 18.4903L48.0691 26.9863H42.9931L46.4491 13.0903C46.6291 12.4063 46.7011 11.9743 46.7011 11.5783C46.7011 10.5703 46.1611 9.99433 45.2251 9.34633V9.27433H52.4611L51.0571 14.9983C52.7491 11.5063 55.4851 8.91433 58.7611 8.91433C61.4251 8.91433 62.5411 10.6063 62.5411 12.8383C62.5411 13.4503 62.4691 14.1703 62.2891 14.8903L60.1291 23.5303C60.0571 23.7823 60.0211 23.9983 60.0211 24.2143C60.0211 25.1143 60.5971 25.6183 61.4971 25.6183C62.0731 25.6183 62.7211 25.4383 63.4411 25.0783L63.4771 25.1503C61.9651 26.6983 60.3451 27.3463 58.6531 27.3463C56.3131 27.3463 55.0171 25.9783 55.0171 24.0703C55.0171 23.7103 55.0531 23.3143 55.1611 22.8823L57.2131 14.8543C57.3571 14.2423 57.4291 13.6663 57.4291 13.1983C57.4291 12.2263 57.0691 11.5783 55.8451 11.5783C53.9731 11.5783 51.3451 13.7383 50.1931 18.4903ZM77.2845 11.9023C77.2845 10.4623 76.8165 9.56233 75.5925 9.56233C73.6485 9.56233 72.5325 11.6143 71.8845 14.7103C71.6325 15.9343 71.4885 16.9063 71.4885 17.6623C71.4885 19.0663 71.9565 20.0023 73.1805 20.0023C75.1245 20.0023 76.2405 17.9143 76.8885 14.8183C77.1405 13.5943 77.2845 12.6583 77.2845 11.9023ZM70.3005 35.2303C65.9445 35.2303 61.6965 33.8983 61.6965 31.0543C61.6965 29.0383 63.9285 27.7063 67.2765 27.7783C65.6205 27.3823 64.2885 26.0143 64.2885 24.1783C64.2885 21.5503 66.6645 20.0383 68.9685 19.4983C67.5645 18.5983 66.7365 17.2303 66.7365 15.6463C66.7365 11.7583 70.1205 8.91433 75.5565 8.91433C77.5005 8.91433 79.1205 9.45433 80.2725 10.3543C81.1725 9.20233 82.4685 7.97833 84.0525 7.97833C85.6725 7.97833 86.6445 8.91433 86.6445 10.2823C86.6445 12.3343 84.9165 13.0543 83.5125 13.0543V12.9823C83.9085 12.6583 84.0525 12.2623 84.0525 11.7223C84.0525 10.7863 83.4765 10.1743 82.3245 10.1743C81.7125 10.1743 81.1005 10.3543 80.5965 10.6423C81.4965 11.5063 82.0365 12.6583 82.0365 13.9183C82.0365 17.7703 78.6525 20.6143 73.2165 20.6143C71.7405 20.6143 70.4445 20.2903 69.4005 19.7503C68.3565 20.0743 67.5285 20.8303 67.5285 21.9103C67.5285 22.7023 68.1045 23.3503 69.2925 23.3863L76.2045 23.5303C79.4805 23.6023 81.7845 24.9343 81.7845 27.7783C81.7845 32.8903 76.0245 35.2303 70.3005 35.2303ZM74.1885 28.1743L69.2925 28.0663C66.8805 28.0663 64.8645 28.8943 64.8645 31.1263C64.8645 33.3583 67.1685 34.5463 70.3005 34.5463C74.2965 34.5463 77.5005 33.1423 77.5005 30.2983C77.5005 28.7863 76.4565 28.2463 74.1885 28.1743ZM85.5139 22.8823L90.1579 3.80233C90.3019 3.19033 90.3739 2.72233 90.3739 2.32633C90.3739 1.17433 89.7259 0.706327 88.6459 0.0943267V0.0223277H96.1699L90.4459 23.5303C90.3739 23.7823 90.3379 23.9983 90.3379 24.2143C90.3379 25.1143 90.9139 25.6183 91.8499 25.6183C92.3899 25.6183 93.0379 25.4383 93.7579 25.0783L93.7939 25.1503C92.3179 26.6983 90.6619 27.3463 88.9699 27.3463C86.6299 27.3463 85.3699 25.9783 85.3699 24.0703C85.3699 23.7103 85.4059 23.3143 85.5139 22.8823ZM102.617 27.3463C98.333 27.3463 95.345 24.6103 95.345 20.2183C95.345 14.3863 100.241 8.91433 106.721 8.91433C110.033 8.91433 112.193 10.5343 112.193 12.8383C112.193 16.8343 107.297 18.4183 100.565 18.5623C100.493 19.1383 100.457 19.7143 100.457 20.2543C100.457 23.7103 102.329 25.2223 104.921 25.2223C107.117 25.2223 108.809 24.2503 110.429 22.3063H110.609C109.061 25.5463 106.253 27.3463 102.617 27.3463ZM106.793 9.56233C104.093 9.56233 101.357 13.9183 100.637 18.1303C105.281 17.6983 108.305 15.1783 108.305 11.4343C108.305 10.3183 107.801 9.56233 106.793 9.56233Z" fill="#292929"/>
</svg>
