<svg width="24" height="25" viewBox="0 0 24 25" fill="none" xmlns="http://www.w3.org/2000/svg">
<path d="M10 5.3125V5.5625H14V5.3125C14 4.78207 13.7893 4.27336 13.4142 3.89829C13.0391 3.52321 12.5304 3.3125 12 3.3125C11.4696 3.3125 10.9609 3.52321 10.5858 3.89829C10.2107 4.27336 10 4.78207 10 5.3125ZM8.75 5.5625V5.3125C8.75 4.45055 9.09241 3.6239 9.7019 3.0144C10.3114 2.40491 11.138 2.0625 12 2.0625C12.862 2.0625 13.6886 2.40491 14.2981 3.0144C14.9076 3.6239 15.25 4.45055 15.25 5.3125V5.5625H20.875C21.0408 5.5625 21.1997 5.62835 21.3169 5.74556C21.4342 5.86277 21.5 6.02174 21.5 6.1875C21.5 6.35326 21.4342 6.51223 21.3169 6.62944C21.1997 6.74665 21.0408 6.8125 20.875 6.8125H19.4165L18.4165 18.7405C18.3405 19.6463 17.927 20.4905 17.2579 21.1058C16.5888 21.7211 15.713 22.0625 14.804 22.0625H9.196C8.2871 22.0624 7.41139 21.7209 6.7424 21.1056C6.07341 20.4904 5.65997 19.6462 5.584 18.7405L4.584 6.8125H3.125C2.95924 6.8125 2.80027 6.74665 2.68306 6.62944C2.56585 6.51223 2.5 6.35326 2.5 6.1875C2.5 6.02174 2.56585 5.86277 2.68306 5.74556C2.80027 5.62835 2.95924 5.5625 3.125 5.5625H8.75ZM10.75 10.1875C10.75 10.1054 10.7338 10.0242 10.7024 9.94832C10.671 9.87249 10.625 9.80359 10.5669 9.74556C10.5089 9.68752 10.44 9.64148 10.3642 9.61007C10.2883 9.57867 10.2071 9.5625 10.125 9.5625C10.0429 9.5625 9.96165 9.57867 9.88582 9.61007C9.80999 9.64148 9.74109 9.68752 9.68306 9.74556C9.62502 9.80359 9.57898 9.87249 9.54757 9.94832C9.51617 10.0242 9.5 10.1054 9.5 10.1875V17.4375C9.5 17.5196 9.51617 17.6008 9.54757 17.6767C9.57898 17.7525 9.62502 17.8214 9.68306 17.8794C9.74109 17.9375 9.80999 17.9835 9.88582 18.0149C9.96165 18.0463 10.0429 18.0625 10.125 18.0625C10.2071 18.0625 10.2883 18.0463 10.3642 18.0149C10.44 17.9835 10.5089 17.9375 10.5669 17.8794C10.625 17.8214 10.671 17.7525 10.7024 17.6767C10.7338 17.6008 10.75 17.5196 10.75 17.4375V10.1875ZM13.875 9.5625C13.53 9.5625 13.25 9.8425 13.25 10.1875V17.4375C13.25 17.6033 13.3158 17.7622 13.4331 17.8794C13.5503 17.9967 13.7092 18.0625 13.875 18.0625C14.0408 18.0625 14.1997 17.9967 14.3169 17.8794C14.4342 17.7622 14.5 17.6033 14.5 17.4375V10.1875C14.5 9.8425 14.22 9.5625 13.875 9.5625Z" fill="#292929"/>
</svg>
