<svg width="25" height="22" viewBox="0 0 25 22" fill="none" xmlns="http://www.w3.org/2000/svg">
<path d="M24.4981 9.86074C24.4739 9.80434 24.4457 9.74974 24.4137 9.69735C24.3843 9.63148 24.3498 9.56799 24.3106 9.50743C24.2768 9.43324 24.2365 9.36221 24.1901 9.2952C24.151 9.21468 24.104 9.13833 24.0496 9.0673C24.0047 8.97956 23.9503 8.89706 23.8873 8.8213C23.8374 8.72866 23.7767 8.64225 23.7065 8.56385C23.6497 8.46568 23.5805 8.37512 23.5009 8.29434C23.4376 8.19255 23.3609 8.09968 23.273 8.0182C23.2029 7.91383 23.1185 7.81986 23.0222 7.73905C22.9444 7.63205 22.8513 7.53699 22.746 7.45687C22.6606 7.34824 22.5589 7.25346 22.4446 7.17591C22.3505 7.06685 22.2396 6.97362 22.116 6.89977C22.0132 6.79065 21.8928 6.69973 21.7597 6.63087C21.6476 6.52309 21.5176 6.43557 21.3756 6.37221C21.2542 6.26771 21.1149 6.18601 20.9644 6.13104C20.8353 6.03061 20.6887 5.95497 20.5321 5.90795C20.4004 5.81768 20.2536 5.75192 20.0986 5.71382C19.9667 5.63548 19.8223 5.5806 19.6717 5.55162C19.5395 5.48368 19.3969 5.43843 19.2497 5.41777C19.1173 5.35966 18.9764 5.32341 18.8325 5.31046C18.7011 5.26178 18.563 5.23391 18.423 5.22786C18.3021 5.1902 18.1764 5.1699 18.0498 5.16756H18.0227C17.923 5.1421 17.8206 5.12835 17.7176 5.12657C17.6893 5.12657 17.661 5.12657 17.6326 5.12657C17.5532 5.11052 17.4725 5.10184 17.3915 5.10063C17.345 5.09983 17.2984 5.10144 17.2521 5.10546C17.194 5.09661 17.1355 5.09157 17.0767 5.09038C17.0139 5.08919 16.951 5.09262 16.8886 5.10063C16.85 5.09641 16.8108 5.09341 16.7716 5.0928C16.6939 5.09146 16.6162 5.0969 16.5395 5.10908H16.4792C16.3872 5.10745 16.2953 5.11533 16.2049 5.13259H16.1964C16.092 5.13084 15.9878 5.14136 15.8859 5.16395C15.7843 5.16492 15.6831 5.17767 15.5844 5.20193C15.4893 5.20629 15.395 5.22084 15.3029 5.24534C15.2129 5.25207 15.1238 5.26783 15.037 5.29237C14.9553 5.30094 14.8746 5.31688 14.7958 5.34C14.7213 5.34975 14.6477 5.36569 14.5758 5.38763C14.5094 5.39731 14.4439 5.41222 14.3798 5.43224C14.3236 5.4412 14.268 5.45389 14.2134 5.47023C14.1574 5.4804 14.102 5.49409 14.0476 5.51123C13.9817 5.52314 13.9168 5.54008 13.8535 5.56188C13.7801 5.57568 13.7081 5.59585 13.6382 5.62217C13.5557 5.63817 13.4749 5.6622 13.3971 5.69392C13.3102 5.71269 13.2255 5.74037 13.1444 5.77651C13.05 5.79838 12.9584 5.83074 12.8713 5.87299C12.8203 5.88614 12.7703 5.90225 12.7212 5.92122C12.6734 5.90176 12.6244 5.88505 12.5747 5.87117C12.4883 5.82731 12.3973 5.79333 12.3034 5.76988C12.2228 5.7324 12.1384 5.70331 12.0519 5.68306C11.9753 5.65019 11.8958 5.62476 11.8144 5.6071C11.745 5.57969 11.6734 5.55831 11.6004 5.54319C11.5373 5.52024 11.4726 5.5021 11.4068 5.48892C11.3529 5.47102 11.2979 5.45652 11.2422 5.44551C11.188 5.428 11.1326 5.41431 11.0764 5.40452C11.0129 5.38331 10.9477 5.36718 10.8817 5.35628C10.8102 5.33315 10.737 5.316 10.6628 5.30503C10.5842 5.28033 10.5034 5.26297 10.4216 5.25318C10.3353 5.22711 10.2467 5.20974 10.1569 5.20133C10.0655 5.1753 9.97149 5.15913 9.87658 5.15309C9.7781 5.12704 9.67694 5.11248 9.57512 5.10969C9.47361 5.08536 9.36957 5.07301 9.26519 5.0729H9.25672C9.16669 5.0541 9.07498 5.0446 8.98301 5.04457H8.92273C8.84609 5.03104 8.76842 5.02417 8.6906 5.02406C8.65141 5.02406 8.61163 5.02406 8.57365 5.02949C8.51137 5.02026 8.44849 5.01563 8.38553 5.01562C8.32664 5.01573 8.26783 5.01976 8.20948 5.02769C8.16321 5.02284 8.11667 5.02042 8.07015 5.02045C7.98927 5.02031 7.9086 5.02758 7.82904 5.04215C7.80131 5.04215 7.77237 5.04215 7.74403 5.04215C7.6409 5.04206 7.53808 5.054 7.43771 5.07772H7.41055C7.28384 5.07781 7.15779 5.09588 7.03615 5.13139C6.89619 5.13493 6.75764 5.16036 6.62554 5.20675C6.48033 5.21682 6.33779 5.25063 6.20352 5.30684C6.05678 5.32495 5.91415 5.36755 5.7815 5.43285C5.63029 5.45914 5.48481 5.51157 5.35161 5.58781C5.196 5.62322 5.04811 5.68654 4.91509 5.77471C4.75776 5.81899 4.60996 5.89196 4.47916 5.98995C4.32761 6.04285 4.18689 6.12272 4.06376 6.2257C3.92038 6.28637 3.7886 6.37143 3.67428 6.47712C3.5398 6.54359 3.41745 6.63225 3.31246 6.73939C3.18757 6.81124 3.07502 6.90264 2.97905 7.01011C2.86293 7.0855 2.75919 7.17845 2.67156 7.28565C2.56464 7.36382 2.46982 7.45727 2.39004 7.563C2.29232 7.64216 2.20622 7.73472 2.13435 7.83793C2.04502 7.9178 1.96676 8.00926 1.90163 8.10985C1.82051 8.1892 1.7498 8.27855 1.69121 8.37574C1.61922 8.45276 1.55653 8.53796 1.50434 8.62957C1.44022 8.70364 1.38442 8.78451 1.33793 8.87074C1.28225 8.94064 1.23377 9.01598 1.19324 9.09563C1.14461 9.16161 1.102 9.23183 1.06598 9.30545C1.02558 9.36529 0.989898 9.42818 0.959264 9.49357C0.926279 9.54547 0.89705 9.59967 0.871828 9.65575C0.749711 9.86114 0.685366 10.0957 0.685547 10.3346C0.685547 10.51 0.720074 10.6837 0.787188 10.8457C0.854302 11.0077 0.952644 11.155 1.07666 11.279C1.20067 11.403 1.34791 11.5014 1.50994 11.5685C1.67196 11.6356 1.84563 11.6701 2.02101 11.6701C2.27752 11.6701 2.52862 11.5962 2.7442 11.4572C2.95977 11.3182 3.13068 11.12 3.23651 10.8863C3.25873 10.8487 3.27885 10.8098 3.29678 10.77C3.32418 10.7272 3.34915 10.6829 3.37156 10.6373C3.40338 10.5902 3.43222 10.541 3.45782 10.4902C3.49623 10.4386 3.53071 10.3842 3.56093 10.3274C3.60403 10.2732 3.64293 10.2157 3.67729 10.1556C3.72598 10.099 3.76988 10.0385 3.80867 9.9747C3.86281 9.91712 3.91169 9.85476 3.95462 9.7884C4.01461 9.72975 4.06894 9.66554 4.11683 9.59666C4.18344 9.53813 4.24399 9.4731 4.29766 9.40252C4.3688 9.34479 4.43387 9.27994 4.49182 9.20898C4.56857 9.15318 4.63912 9.0893 4.70224 9.01845C4.78464 8.96492 4.86084 8.90244 4.92951 8.83215C5.01775 8.78141 5.09989 8.72072 5.17431 8.65127C5.26802 8.60479 5.35591 8.54731 5.43603 8.48005C5.53649 8.43798 5.63122 8.38349 5.71813 8.31786C5.82234 8.2818 5.92166 8.23278 6.01364 8.17195C6.11674 8.14283 6.21594 8.10133 6.30906 8.04835C6.4096 8.02534 6.50708 7.99074 6.59964 7.94524C6.69776 7.92819 6.79363 7.90008 6.88542 7.86144C6.98114 7.84985 7.07537 7.82801 7.16642 7.79632C7.26015 7.78924 7.35289 7.77246 7.44316 7.74628C7.53497 7.7442 7.62633 7.73248 7.7157 7.71131H7.74278C7.82366 7.71119 7.90437 7.70393 7.98397 7.6896C8.01231 7.6896 8.04064 7.6896 8.06898 7.6896C8.12766 7.68944 8.18628 7.68541 8.24444 7.67754C8.29091 7.68232 8.33763 7.68474 8.38435 7.68478C8.42354 7.68478 8.46271 7.68478 8.5013 7.67936C8.56382 7.68817 8.62687 7.69261 8.69001 7.69262H8.75029C8.82692 7.70619 8.90459 7.71304 8.98242 7.71312H8.99022C9.06708 7.72893 9.14518 7.73821 9.2236 7.74086C9.2973 7.7582 9.3723 7.76929 9.44786 7.77401C9.50141 7.7882 9.55578 7.79907 9.61066 7.80657C9.57179 7.8412 9.53496 7.87804 9.50034 7.91691C9.3659 7.99954 9.24694 8.10503 9.14883 8.22862C9.01416 8.31982 8.89727 8.43486 8.80394 8.56807C8.67378 8.66554 8.56241 8.78588 8.47532 8.9232C8.35964 9.02059 8.26124 9.13676 8.18416 9.26686C8.08293 9.36371 7.99747 9.47581 7.9309 9.59908C7.83733 9.69789 7.75925 9.8103 7.69936 9.93249C7.61317 10.0323 7.54208 10.1443 7.48835 10.2647C7.40912 10.3656 7.34458 10.4773 7.29662 10.5963C7.22406 10.6978 7.16584 10.8088 7.12359 10.9261C7.05702 11.0265 7.00464 11.1357 6.968 11.2505C6.90775 11.3504 6.86112 11.4578 6.82934 11.57C6.77419 11.6695 6.73229 11.7757 6.70459 11.886C6.65582 11.9827 6.61932 12.0852 6.59603 12.1911C6.5525 12.2858 6.52054 12.3854 6.50079 12.4877C6.46234 12.5799 6.43439 12.6762 6.41755 12.7747C6.38408 12.8646 6.36003 12.9578 6.34579 13.0526C6.31697 13.1378 6.29679 13.2257 6.28551 13.3149C6.25959 13.3996 6.24244 13.4866 6.23429 13.5748C6.20663 13.6755 6.19103 13.7791 6.18785 13.8835C6.15868 13.9943 6.14389 14.1084 6.14383 14.2229C6.14383 14.2308 6.14383 14.2386 6.14383 14.2458C6.12539 14.3357 6.11608 14.4272 6.11609 14.519C6.11609 14.5497 6.11609 14.5793 6.1191 14.6106C6.10888 14.6785 6.10364 14.747 6.10343 14.8156C6.10371 14.8692 6.10711 14.9228 6.11366 14.976C6.10944 15.0212 6.10703 15.0658 6.10703 15.1122C6.10719 15.1897 6.11409 15.2669 6.12757 15.3432C6.12757 15.3643 6.12757 15.3866 6.12757 15.4077C6.12753 15.5091 6.13906 15.6103 6.16194 15.7091C6.16253 15.8316 6.18013 15.9533 6.21434 16.0709C6.2211 16.1943 6.24526 16.3161 6.2861 16.4327C6.29973 16.5558 6.33084 16.6764 6.3784 16.7908C6.39883 16.9137 6.43653 17.033 6.49049 17.1453C6.5181 17.2663 6.56254 17.3828 6.62252 17.4914C6.65573 17.6073 6.70488 17.7181 6.76847 17.8206C6.80842 17.9334 6.86338 18.0402 6.93186 18.1383C6.97895 18.2535 7.0421 18.3615 7.11939 18.4591C7.17692 18.5812 7.25272 18.6939 7.34424 18.7931C7.4167 18.9301 7.51237 19.0536 7.62701 19.1579C7.70956 19.3004 7.81772 19.4265 7.94599 19.5299C8.03518 19.6601 8.14663 19.7736 8.2752 19.8651C8.36953 19.9839 8.48327 20.0858 8.61162 20.1666C8.70983 20.2723 8.82444 20.3615 8.95107 20.4307C9.05119 20.5241 9.1651 20.6015 9.28874 20.6604C9.38999 20.7425 9.50269 20.8093 9.62332 20.8587C9.7237 20.9299 9.83349 20.9867 9.94952 21.0276C10.0479 21.0888 10.1539 21.1368 10.2648 21.1704C10.361 21.223 10.4632 21.2635 10.5693 21.291C10.6607 21.3341 10.7569 21.3665 10.8557 21.3875C10.9417 21.4221 11.031 21.4477 11.1222 21.4641C11.2023 21.492 11.2849 21.5121 11.3688 21.5244C11.4434 21.5468 11.5199 21.5625 11.5973 21.5714C11.7025 21.5987 11.8106 21.6131 11.9193 21.6142C12.0181 21.6371 12.1193 21.6486 12.2207 21.6486C12.2485 21.6486 12.275 21.6486 12.3015 21.6486C12.3811 21.6631 12.4618 21.6704 12.5427 21.6703H12.5698H12.6302C12.7109 21.6717 12.7916 21.6659 12.8713 21.6528C12.8984 21.6528 12.9249 21.6564 12.9521 21.6564C13.0533 21.6582 13.1545 21.6485 13.2535 21.6275C13.3622 21.6281 13.4705 21.6156 13.5761 21.5901C13.6536 21.5827 13.7303 21.5683 13.8052 21.5473C13.8895 21.5363 13.9724 21.5173 14.0531 21.4906C14.1445 21.4758 14.2342 21.4518 14.3207 21.4189C14.42 21.3994 14.5167 21.3686 14.609 21.3272C14.7153 21.3022 14.8182 21.2641 14.9152 21.2139C15.0268 21.1823 15.1339 21.1363 15.2336 21.077C15.3502 21.0381 15.4607 20.9831 15.5621 20.9136C15.6835 20.8665 15.7973 20.8016 15.8998 20.7213C16.0246 20.6647 16.1399 20.5893 16.2417 20.4976C16.3695 20.4306 16.4856 20.3433 16.5853 20.2389C16.7149 20.1611 16.8305 20.0621 16.9272 19.9459C17.0575 19.8566 17.171 19.7449 17.2624 19.6161C17.3925 19.5151 17.5028 19.3911 17.588 19.2501C17.7046 19.1472 17.8026 19.0248 17.8774 18.8884C17.9707 18.7908 18.0486 18.6796 18.1083 18.5586C18.1874 18.4622 18.2526 18.3553 18.3019 18.2408C18.372 18.144 18.4288 18.0381 18.4706 17.9261C18.5358 17.8246 18.5868 17.7147 18.622 17.5993C18.6839 17.4918 18.7304 17.3761 18.7601 17.2556C18.8168 17.1446 18.8574 17.026 18.8807 16.9035C18.9302 16.79 18.9636 16.67 18.9796 16.5472C19.0226 16.4309 19.0489 16.3091 19.0579 16.1855C19.0948 16.0683 19.1152 15.9465 19.1182 15.8237C19.1429 15.725 19.1562 15.6239 19.158 15.5222C19.158 15.5011 19.158 15.4788 19.158 15.4577C19.1729 15.3818 19.1812 15.3047 19.1827 15.2274C19.1827 15.1816 19.1827 15.1364 19.1785 15.0911C19.1859 15.038 19.1901 14.9844 19.1912 14.9308C19.1922 14.862 19.1882 14.7933 19.1791 14.7252C19.1791 14.695 19.1834 14.6649 19.184 14.6341C19.1853 14.5423 19.1774 14.4506 19.1604 14.3604C19.1604 14.3525 19.1604 14.3453 19.1604 14.3369C19.1624 14.2222 19.1497 14.1077 19.1224 13.9962C19.1211 13.8919 19.1073 13.788 19.0814 13.6869C19.0746 13.5987 19.0588 13.5115 19.0344 13.4265C19.0249 13.3372 19.0063 13.2491 18.9789 13.1636C18.9668 13.0684 18.9446 12.9749 18.9126 12.8844C18.8976 12.7855 18.8715 12.6887 18.8348 12.5956C18.8169 12.4929 18.7868 12.3927 18.745 12.2972C18.7234 12.191 18.6888 12.0879 18.6419 11.9903C18.6157 11.8796 18.5752 11.7728 18.5214 11.6725C18.4915 11.5598 18.4466 11.4515 18.3881 11.3506C18.3534 11.235 18.3029 11.1249 18.2379 11.0232C18.1978 10.905 18.1414 10.793 18.0703 10.6904C18.0244 10.5706 17.9617 10.4579 17.8841 10.3557C17.8326 10.2341 17.7635 10.1208 17.679 10.0193C17.6212 9.89607 17.5453 9.78225 17.4536 9.68168C17.3893 9.5573 17.3058 9.44377 17.2064 9.34524C17.1316 9.21404 17.0354 9.09625 16.9217 8.99675C16.837 8.85764 16.7278 8.73508 16.5992 8.635C16.5083 8.50017 16.3934 8.38308 16.2604 8.28951C16.1644 8.16429 16.0472 8.05678 15.9142 7.97178C15.8803 7.93234 15.8441 7.89489 15.8058 7.85963C15.8608 7.85331 15.9154 7.84344 15.9691 7.83009C16.0448 7.82685 16.12 7.81716 16.194 7.80114C16.2725 7.79998 16.3508 7.79211 16.428 7.77763H16.4358C16.5137 7.77905 16.5916 7.77361 16.6686 7.76136H16.7288C16.7917 7.7623 16.8546 7.75888 16.917 7.75111C16.9555 7.75533 16.9947 7.75773 17.0339 7.75834C17.0806 7.75915 17.1272 7.75754 17.1737 7.75352C17.2316 7.76236 17.2901 7.7674 17.3486 7.76859C17.3776 7.76859 17.4053 7.76859 17.4336 7.76859C17.5131 7.78435 17.5938 7.79302 17.6748 7.79451H17.702C17.791 7.81729 17.8821 7.83064 17.9738 7.83431C18.0638 7.86209 18.1563 7.88047 18.25 7.88917C18.3405 7.9225 18.4342 7.94596 18.5297 7.95912C18.6209 7.9994 18.7164 8.02913 18.8144 8.04774C18.9059 8.09471 19.0027 8.13093 19.1026 8.15566C19.1948 8.21043 19.2934 8.25376 19.3962 8.28469C19.4869 8.34713 19.5852 8.39797 19.6886 8.43603C19.7745 8.50337 19.8684 8.55968 19.9683 8.60365C20.0473 8.67212 20.1342 8.73101 20.227 8.7791C20.3003 8.84829 20.3813 8.90896 20.4682 8.95997C20.5358 9.03125 20.611 9.09494 20.6925 9.14989C20.7546 9.2217 20.8241 9.28678 20.8999 9.34404C20.9565 9.41588 21.0204 9.48175 21.0904 9.5406C21.1423 9.61192 21.2011 9.67795 21.2659 9.73775C21.3126 9.80726 21.3656 9.87225 21.4244 9.93189C21.4663 9.99912 21.5142 10.0625 21.5673 10.1212C21.6049 10.1862 21.6478 10.2479 21.6957 10.3057C21.729 10.3666 21.767 10.4248 21.8091 10.48C21.8383 10.5372 21.8717 10.5923 21.9091 10.6446C21.9339 10.6957 21.9619 10.7452 21.993 10.7929C22.0146 10.8388 22.0387 10.8835 22.0653 10.9267C22.083 10.9681 22.1032 11.0083 22.1256 11.0473C22.2272 11.2829 22.3947 11.4842 22.6078 11.627C22.8209 11.7699 23.0707 11.8483 23.3273 11.8528C23.6814 11.8589 24.0234 11.7242 24.2782 11.4781C24.5329 11.2321 24.6795 10.895 24.6857 10.5408C24.6857 10.3014 24.6209 10.0664 24.4981 9.86074ZM15.8335 12.1639C15.8616 12.2477 15.8979 12.3285 15.942 12.4051C15.9665 12.4868 15.9988 12.5659 16.0385 12.6414C16.0596 12.7205 16.0881 12.7974 16.1235 12.8712C16.1421 12.9492 16.1675 13.0254 16.1994 13.0991C16.2149 13.1746 16.2369 13.2486 16.2652 13.3203C16.2781 13.3931 16.297 13.4647 16.3218 13.5344C16.3324 13.6037 16.3486 13.672 16.3701 13.7388C16.3783 13.8063 16.3918 13.873 16.4104 13.9383C16.4173 14.0016 16.4286 14.0642 16.4442 14.1259C16.4498 14.1964 16.4611 14.2664 16.478 14.3351C16.4788 14.412 16.4865 14.4886 16.5009 14.5642C16.5009 14.572 16.5009 14.5792 16.5009 14.5877C16.4996 14.6562 16.5036 14.7248 16.513 14.7927C16.513 14.8228 16.5081 14.853 16.5075 14.8843C16.5066 14.9296 16.5083 14.9749 16.5124 15.02C16.5048 15.0733 16.5006 15.1271 16.4997 15.181C16.4997 15.2021 16.4997 15.2244 16.4997 15.2455C16.4854 15.3192 16.4773 15.3941 16.4756 15.4692C16.4575 15.5418 16.4455 15.6158 16.4394 15.6904C16.4175 15.7615 16.4015 15.8343 16.3918 15.9081C16.3659 15.9779 16.3457 16.0497 16.3315 16.1227C16.3022 16.1907 16.2784 16.2608 16.2604 16.3326C16.2271 16.3993 16.1994 16.4686 16.1777 16.54C16.1415 16.6031 16.1104 16.669 16.0849 16.7371C16.0456 16.7983 16.0115 16.8626 15.983 16.9295C15.9388 16.9903 15.8998 17.0549 15.8666 17.1224C15.8155 17.1849 15.7701 17.2519 15.731 17.3226C15.6636 17.3935 15.6042 17.4715 15.5537 17.5553C15.4753 17.6241 15.4051 17.7018 15.3445 17.7868C15.2682 17.8468 15.1985 17.9147 15.1365 17.9894C15.0611 18.0407 14.9911 18.0997 14.9279 18.1655C14.8546 18.2094 14.7858 18.2603 14.7223 18.3174C14.6501 18.3553 14.5815 18.3997 14.5173 18.45C14.4472 18.4819 14.38 18.5198 14.3165 18.5634C14.2484 18.5897 14.1826 18.6218 14.12 18.6593C14.0542 18.6809 13.9903 18.7077 13.9288 18.7394C13.867 18.757 13.8066 18.7789 13.748 18.8052C13.6887 18.8193 13.6305 18.8374 13.5737 18.8594C13.5184 18.8705 13.4638 18.885 13.4103 18.9028C13.3599 18.9107 13.3099 18.9216 13.2608 18.9354C13.2129 18.9415 13.1654 18.9504 13.1185 18.9619C13.0699 18.9665 13.0216 18.9738 12.9738 18.9836C12.8989 18.9834 12.824 18.9894 12.7501 19.0017C12.7236 19.0017 12.6964 18.9981 12.6699 18.9975C12.6434 18.9969 12.6133 18.9975 12.5861 18.9975H12.5361C12.509 18.9975 12.4818 18.9975 12.4553 18.9975C12.3815 18.984 12.3067 18.9767 12.2316 18.9758C12.1841 18.9649 12.136 18.9567 12.0875 18.9511C12.0407 18.9387 11.9931 18.929 11.9452 18.9221C11.8963 18.9073 11.8466 18.8954 11.7963 18.8866C11.7429 18.8678 11.6883 18.8524 11.6329 18.8407C11.5767 18.8166 11.5189 18.7965 11.4599 18.7804C11.4013 18.7531 11.3408 18.7302 11.2789 18.7117C11.2181 18.6789 11.1549 18.6508 11.0896 18.6279C11.0274 18.5894 10.9621 18.5561 10.8943 18.5284C10.8317 18.4839 10.7653 18.445 10.696 18.4121C10.6327 18.3606 10.5649 18.315 10.4933 18.2758C10.4308 18.2173 10.3628 18.165 10.2901 18.1196C10.2282 18.0524 10.1595 17.9918 10.0852 17.9388C10.0244 17.8629 9.95571 17.7937 9.88019 17.7326C9.82124 17.6463 9.75247 17.5672 9.67521 17.4968C9.62633 17.4121 9.56823 17.3331 9.5021 17.2611C9.46405 17.1898 9.41987 17.1221 9.37007 17.0585C9.33782 16.9905 9.29991 16.9254 9.25672 16.8637C9.22945 16.7966 9.1966 16.7318 9.15847 16.6702C9.13407 16.6015 9.104 16.535 9.0686 16.4712C9.04818 16.3996 9.02177 16.3298 8.98963 16.2626C8.97303 16.1906 8.95067 16.12 8.92273 16.0516C8.91015 15.9783 8.89157 15.9061 8.86724 15.8358C8.85892 15.7619 8.84439 15.6889 8.82381 15.6175C8.81934 15.5428 8.80866 15.4686 8.79187 15.3956C8.79153 15.3204 8.7849 15.2454 8.772 15.1713C8.772 15.1502 8.772 15.1279 8.772 15.1068C8.77192 15.053 8.76852 14.9992 8.76177 14.9458C8.7665 14.9008 8.76889 14.8555 8.76898 14.8102C8.76898 14.7794 8.76899 14.7499 8.76537 14.7185C8.77596 14.6507 8.78121 14.5822 8.78105 14.5135C8.78105 14.5057 8.78105 14.4979 8.78105 14.4906C8.79692 14.4152 8.80595 14.3385 8.80814 14.2615C8.82627 14.1931 8.83878 14.1233 8.84552 14.0529C8.86215 13.9915 8.87446 13.9291 8.88232 13.866C8.90214 13.8009 8.91685 13.7344 8.92634 13.667C8.94905 13.6008 8.96642 13.5328 8.97822 13.4638C9.00424 13.3945 9.0244 13.3231 9.0385 13.2504C9.06814 13.1792 9.09152 13.1056 9.10842 13.0303C9.14154 12.9572 9.16815 12.8814 9.18798 12.8036C9.22487 12.7304 9.25479 12.6539 9.27726 12.5751C9.31835 12.5004 9.35207 12.4218 9.37794 12.3406C9.42326 12.2651 9.46104 12.1853 9.4907 12.1024C9.54046 12.0265 9.5823 11.9457 9.61552 11.8613C9.67006 11.7861 9.71635 11.7052 9.75359 11.6201C9.81271 11.5454 9.86362 11.4645 9.9055 11.3789C9.96944 11.3048 10.0251 11.224 10.0713 11.1377C10.1404 11.0644 10.2011 10.9835 10.2522 10.8966C10.33 10.822 10.3986 10.7384 10.4565 10.6476C10.5449 10.5728 10.6233 10.4871 10.6899 10.3925C10.7824 10.3231 10.8654 10.2421 10.9371 10.1514C11.0301 10.0885 11.1148 10.0142 11.1892 9.93008C11.2825 9.87322 11.3683 9.80496 11.4448 9.72689C11.5382 9.67592 11.625 9.61377 11.7034 9.5418C11.7961 9.49558 11.8833 9.43894 11.9633 9.37298C12.0554 9.33192 12.1426 9.28053 12.2232 9.21983C12.3142 9.18376 12.4009 9.13766 12.4818 9.08237C12.5542 9.05671 12.6243 9.02462 12.691 8.9865C12.7565 9.02525 12.8253 9.05814 12.8966 9.08478C12.9764 9.14147 13.0624 9.189 13.1529 9.22646C13.2321 9.28878 13.3183 9.34178 13.4097 9.38444C13.4885 9.45171 13.5747 9.50976 13.6666 9.55748C13.7438 9.63089 13.8296 9.69465 13.9222 9.74739C13.9974 9.82662 14.082 9.89628 14.1742 9.9548C14.2472 10.0401 14.3307 10.1158 14.4226 10.1803C14.4921 10.2722 14.5731 10.3546 14.6638 10.4257C14.7288 10.5213 14.8058 10.6083 14.8929 10.6843C14.949 10.7763 15.0161 10.8611 15.0925 10.937C15.1422 11.0237 15.2014 11.1046 15.2691 11.1781C15.314 11.2642 15.3682 11.3451 15.4307 11.4193C15.471 11.5058 15.5206 11.5876 15.5784 11.6635C15.6144 11.7484 15.6593 11.8292 15.7123 11.9047C15.7434 11.9952 15.7836 12.0822 15.8335 12.1639Z" fill="#F0F0F0"/>
<path d="M7.42367 3.47821C8.3011 3.47821 9.01239 2.76692 9.01239 1.88949C9.01239 1.01207 8.3011 0.300781 7.42367 0.300781C6.54625 0.300781 5.83496 1.01207 5.83496 1.88949C5.83496 2.76692 6.54625 3.47821 7.42367 3.47821Z" fill="#F0F0F0"/>
<path d="M17.7235 3.57196C18.6009 3.57196 19.3122 2.86067 19.3122 1.98324C19.3122 1.10582 18.6009 0.394531 17.7235 0.394531C16.8461 0.394531 16.1348 1.10582 16.1348 1.98324C16.1348 2.86067 16.8461 3.57196 17.7235 3.57196Z" fill="#F0F0F0"/>
</svg>
