<svg width="24" height="25" viewBox="0 0 24 25" fill="none" xmlns="http://www.w3.org/2000/svg">
<path d="M9 15.0645C9 15.6167 8.55228 16.0645 8 16.0645C7.44772 16.0645 7 15.6167 7 15.0645C7 14.5122 7.44772 14.0645 8 14.0645C8.55228 14.0645 9 14.5122 9 15.0645Z" fill="#292929"/>
<path d="M9 11.0645C9 11.6167 8.55228 12.0645 8 12.0645C7.44772 12.0645 7 11.6167 7 11.0645C7 10.5122 7.44772 10.0645 8 10.0645C8.55228 10.0645 9 10.5122 9 11.0645Z" fill="#292929"/>
<path d="M13 15.0645C13 15.6167 12.5523 16.0645 12 16.0645C11.4477 16.0645 11 15.6167 11 15.0645C11 14.5122 11.4477 14.0645 12 14.0645C12.5523 14.0645 13 14.5122 13 15.0645Z" fill="#292929"/>
<path d="M13 11.0645C13 11.6167 12.5523 12.0645 12 12.0645C11.4477 12.0645 11 11.6167 11 11.0645C11 10.5122 11.4477 10.0645 12 10.0645C12.5523 10.0645 13 10.5122 13 11.0645Z" fill="#292929"/>
<path d="M17 11.0645C17 11.6167 16.5523 12.0645 16 12.0645C15.4477 12.0645 15 11.6167 15 11.0645C15 10.5122 15.4477 10.0645 16 10.0645C16.5523 10.0645 17 10.5122 17 11.0645Z" fill="#292929"/>
<path fill-rule="evenodd" clip-rule="evenodd" d="M12 4.81445C9.88333 4.81445 6.99144 4.99787 5.1865 5.12993C4.59249 5.1734 4.12445 5.63757 4.07621 6.23007C3.93699 7.9402 3.75 10.6062 3.75 12.5645C3.75 14.5227 3.93699 17.1887 4.07621 18.8988C4.12445 19.4913 4.59249 19.9555 5.1865 19.999C6.99145 20.131 9.88333 20.3145 12 20.3145C14.1167 20.3145 17.0086 20.131 18.8135 19.999C19.4075 19.9555 19.8756 19.4913 19.9238 18.8988C20.063 17.1887 20.25 14.5227 20.25 12.5645C20.25 10.6062 20.063 7.9402 19.9238 6.23007C19.8756 5.63757 19.4075 5.1734 18.8135 5.12993C17.0086 4.99787 14.1167 4.81445 12 4.81445ZM5.07704 3.63393C6.8828 3.50181 9.82315 3.31445 12 3.31445C14.1769 3.31445 17.1172 3.50181 18.923 3.63393C20.2533 3.73127 21.3105 4.77773 21.4188 6.10836C21.5582 7.81984 21.75 10.5394 21.75 12.5645C21.75 14.5895 21.5582 17.3091 21.4188 19.0205C21.3105 20.3512 20.2533 21.3976 18.923 21.495C17.1172 21.6271 14.1769 21.8145 12 21.8145C9.82315 21.8145 6.8828 21.6271 5.07704 21.495C3.7467 21.3976 2.68948 20.3512 2.58116 19.0205C2.44183 17.3091 2.25 14.5895 2.25 12.5645C2.25 10.5394 2.44183 7.81984 2.58116 6.10836C2.68948 4.77773 3.7467 3.73127 5.07704 3.63393Z" fill="#292929"/>
<path fill-rule="evenodd" clip-rule="evenodd" d="M9 2.31445C9.41421 2.31445 9.75 2.65024 9.75 3.06445V5.56445C9.75 5.97867 9.41421 6.31445 9 6.31445C8.58579 6.31445 8.25 5.97867 8.25 5.56445V3.06445C8.25 2.65024 8.58579 2.31445 9 2.31445Z" fill="#292929"/>
<path fill-rule="evenodd" clip-rule="evenodd" d="M15 2.31445C15.4142 2.31445 15.75 2.65024 15.75 3.06445L15.75 5.56445C15.75 5.97867 15.4142 6.31445 15 6.31445C14.5858 6.31445 14.25 5.97867 14.25 5.56445L14.25 3.06445C14.25 2.65024 14.5858 2.31445 15 2.31445Z" fill="#292929"/>
</svg>
