<svg width="25" height="25" viewBox="0 0 25 25" fill="none" xmlns="http://www.w3.org/2000/svg">
<path fill-rule="evenodd" clip-rule="evenodd" d="M12.0639 6.8706C10.3546 5.08923 7.47604 5.06377 5.60863 6.88825C5.60271 6.89403 5.5967 6.89971 5.59061 6.9053C3.77886 8.56476 3.75209 11.3421 5.60863 13.1559L5.6135 13.1607L12.6229 20.1313L19.7625 13.1559C19.7684 13.1502 19.7744 13.1445 19.7805 13.1389C21.5922 11.4794 21.619 8.7021 19.7625 6.88825C17.9051 5.07356 15.0123 5.07356 13.1549 6.88825C13.0082 7.03159 12.8106 7.11033 12.6058 7.10702C12.401 7.1037 12.2059 7.01861 12.0639 6.8706ZM12.6321 5.3025C10.2802 3.38825 6.80847 3.57038 4.54393 5.77449C2.05357 8.06486 2.0824 11.8622 4.53257 14.2586C4.5334 14.2594 4.53423 14.2602 4.53507 14.261L12.0765 21.7607C12.3745 22.0571 12.8544 22.0592 13.1549 21.7655L20.8274 14.2694C23.3184 11.9783 23.2886 8.17929 20.836 5.78313C18.5579 3.55743 15.0825 3.39722 12.6321 5.3025Z" fill="#F0F0F0"/>
</svg>
