<svg width="25" height="25" viewBox="0 0 25 25" fill="none" xmlns="http://www.w3.org/2000/svg">
<path d="M22.57 16.2828C22.4134 18.0159 22.1616 19.4242 21.8553 20.6807C21.6511 21.9373 20.4259 22.9844 19.0986 22.9844H17.465C16.5461 22.9844 15.8314 22.2514 15.8314 21.309V17.0158C15.8314 15.9687 15.0146 15.131 13.9937 15.131H11.6454C10.6244 15.131 9.8076 15.9687 9.8076 17.0158V21.309C9.8076 22.2514 9.09291 22.9844 8.17401 22.9844H6.23413C4.90685 22.9844 3.78376 22.042 3.47746 20.6807C3.17116 19.3195 2.9056 18.0171 2.76277 16.2828C2.5815 14.0818 2.76277 11.9896 2.86487 10.6284C2.86487 9.79066 3.37536 8.95296 4.09006 8.4294L11.237 3.50794C11.6454 3.1938 12.1559 2.98438 12.6664 2.98438C13.1769 2.98438 13.7895 3.1938 14.1979 3.50794L21.3448 8.4294C22.0595 8.95296 22.57 9.79066 22.57 10.6284C22.6721 11.9896 22.7687 14.0836 22.57 16.2828Z" fill="#AAE148"/>
</svg>
