<svg width="25" height="25" viewBox="0 0 25 25" fill="none" xmlns="http://www.w3.org/2000/svg">
<path fill-rule="evenodd" clip-rule="evenodd" d="M4.24238 4.29121C4.54472 3.98887 5.03491 3.98887 5.33726 4.29121L12.0156 10.9696L18.694 4.29121C18.9963 3.98887 19.4865 3.98887 19.7889 4.29121C20.0912 4.59355 20.0912 5.08374 19.7889 5.38608L13.1105 12.0645L19.7889 18.7428C20.0912 19.0452 20.0912 19.5354 19.7889 19.8377C19.4865 20.14 18.9963 20.14 18.694 19.8377L12.0156 13.1593L5.33726 19.8377C5.03491 20.14 4.54472 20.14 4.24238 19.8377C3.94004 19.5354 3.94004 19.0452 4.24238 18.7428L10.9208 12.0645L4.24238 5.38608C3.94004 5.08374 3.94004 4.59355 4.24238 4.29121Z" fill="#292929"/>
</svg>
