<svg width="25" height="25" viewBox="0 0 25 25" fill="none" xmlns="http://www.w3.org/2000/svg">
<path fill-rule="evenodd" clip-rule="evenodd" d="M9.81368 4.60731C8.53918 4.60731 7.50599 5.64345 7.50599 6.9216C7.50599 8.19974 8.53918 9.23588 9.81368 9.23588C11.0882 9.23588 12.1214 8.19974 12.1214 6.9216C12.1214 5.64345 11.0882 4.60731 9.81368 4.60731ZM5.96753 6.9216C5.96753 4.79135 7.68951 3.06445 9.81368 3.06445C11.9379 3.06445 13.6598 4.79135 13.6598 6.9216C13.6598 9.05184 11.9379 10.7787 9.81368 10.7787C7.68951 10.7787 5.96753 9.05184 5.96753 6.9216Z" fill="#292929"/>
<path fill-rule="evenodd" clip-rule="evenodd" d="M2.89062 6.92171C2.89062 6.49566 3.23502 6.15028 3.65986 6.15028H6.73678C7.16161 6.15028 7.50599 6.49555 7.50599 6.9216C7.50599 7.34764 7.16161 7.69314 6.73678 7.69314H3.65986C3.23502 7.69314 2.89062 7.34776 2.89062 6.92171Z" fill="#292929"/>
<path fill-rule="evenodd" clip-rule="evenodd" d="M12.1214 6.9216C12.1214 6.49555 12.4657 6.15039 12.8906 6.15039L22.1213 6.15039C22.5462 6.15039 22.8906 6.49577 22.8906 6.92182C22.8906 7.34787 22.5462 7.69325 22.1213 7.69325L12.8906 7.69325C12.4657 7.69325 12.1214 7.34764 12.1214 6.9216Z" fill="#292929"/>
<path fill-rule="evenodd" clip-rule="evenodd" d="M15.9675 14.893C17.242 14.893 18.2752 15.9291 18.2752 17.2072C18.2752 18.4854 17.242 19.5215 15.9675 19.5215C14.693 19.5215 13.6598 18.4854 13.6598 17.2072C13.6598 15.9291 14.693 14.893 15.9675 14.893ZM19.8137 17.2072C19.8137 15.077 18.0917 13.3501 15.9675 13.3501C13.8434 13.3501 12.1214 15.077 12.1214 17.2072C12.1214 19.3375 13.8434 21.0644 15.9675 21.0644C18.0917 21.0644 19.8137 19.3375 19.8137 17.2072Z" fill="#292929"/>
<path fill-rule="evenodd" clip-rule="evenodd" d="M22.8906 17.2074C22.8906 16.7813 22.5462 16.436 22.1214 16.436H19.0444C18.6196 16.436 18.2752 16.7812 18.2752 17.2072C18.2752 17.6333 18.6196 17.9788 19.0444 17.9788H22.1214C22.5462 17.9788 22.8906 17.6334 22.8906 17.2074Z" fill="#292929"/>
<path fill-rule="evenodd" clip-rule="evenodd" d="M13.6598 17.2072C13.6598 16.7812 13.3155 16.436 12.8906 16.436L3.65988 16.436C3.23504 16.436 2.89065 16.7814 2.89065 17.2075C2.89065 17.6335 3.23504 17.9789 3.65988 17.9789L12.8906 17.9789C13.3155 17.9789 13.6598 17.6333 13.6598 17.2072Z" fill="#292929"/>
</svg>
