<svg width="25" height="25" viewBox="0 0 25 25" fill="none" xmlns="http://www.w3.org/2000/svg">
<path fill-rule="evenodd" clip-rule="evenodd" d="M4.5824 8.45775C5.50818 5.14267 8.6569 2.98438 12.123 2.98438C15.5892 2.98438 18.7379 5.14267 19.6637 8.45776C19.8863 9.25478 20.0936 10.0562 20.2493 10.7737C20.6127 12.4481 20.9157 14.6833 21.1032 16.2308C21.2796 17.6871 20.2629 19.0216 18.7702 19.2554C16.9809 19.5355 14.2197 19.9075 12.123 19.9075C10.0264 19.9075 7.2652 19.5355 5.47591 19.2554C3.98316 19.0216 2.9665 17.6871 3.14291 16.2308C3.33036 14.6833 3.63336 12.4481 3.99681 10.7737C4.15254 10.0562 4.35982 9.25478 4.5824 8.45775ZM12.123 4.52284C9.31298 4.52284 6.82786 6.26689 6.10305 8.86236C5.8848 9.6439 5.68589 10.4145 5.53872 11.0925C5.19135 12.6929 4.89512 14.8678 4.70814 16.4114C4.62985 17.0577 5.07652 17.6347 5.72554 17.7363C7.51099 18.0159 10.1634 18.369 12.123 18.369C14.0827 18.369 16.7351 18.0159 18.5206 17.7363C19.1696 17.6347 19.6162 17.0577 19.538 16.4114C19.351 14.8678 19.0547 12.6929 18.7074 11.0925C18.5602 10.4145 18.3613 9.6439 18.143 8.86236C17.4182 6.26689 14.9331 4.52284 12.123 4.52284Z" fill="#292929"/>
<path fill-rule="evenodd" clip-rule="evenodd" d="M10.0215 18.369C10.4568 18.369 10.8096 18.7134 10.8096 19.1382V20.1639C10.8096 20.8719 11.3977 21.4459 12.123 21.4459C12.8484 21.4459 13.4365 20.8719 13.4365 20.1639V19.1382C13.4365 18.7134 13.7893 18.369 14.2246 18.369C14.6598 18.369 15.0126 18.7134 15.0126 19.1382V20.1639C15.0126 21.7216 13.7189 22.9844 12.123 22.9844C10.5272 22.9844 9.23347 21.7216 9.23347 20.1639V19.1382C9.23347 18.7134 9.5863 18.369 10.0215 18.369Z" fill="#292929"/>
</svg>
