<?xml version="1.0" encoding="utf-8"?><!-- Generator: Adobe Illustrator 24.2.3, SVG Export Plug-In . SVG Version: 6.00 Build 0)  -->
<svg version="1.1" id="b88748c8-c30b-46f1-b8cb-a20975a9db6d" xmlns="http://www.w3.org/2000/svg" xmlns:xlink="http://www.w3.org/1999/xlink" x="0px" y="0px" viewBox="0 0 206.4 223" style="enable-background:new 0 0 206.4 223;" xml:space="preserve"><!-- <style type="text/css">
	.st0{fill:#FFFFFF;}
	.st1{enable-background:new    ;}
</style> -->
	<g>
		<g id="f7da72bd-eb7b-44f9-9e02-c7953a141920">
			<path id="a3e51865-3777-405b-83ff-90c7df5824ed" class="st0" d="M167.1,53.7c-0.1-0.3-0.3-0.6-0.4-0.9c-0.2-0.4-0.3-0.7-0.6-1
			c-0.2-0.4-0.4-0.8-0.7-1.1c-0.2-0.4-0.5-0.8-0.8-1.2c-0.2-0.5-0.5-0.9-0.9-1.3c-0.3-0.5-0.6-1-1-1.4c-0.3-0.5-0.7-1-1.1-1.5
			c-0.3-0.5-0.8-1-1.2-1.5c-0.4-0.6-0.8-1.1-1.4-1.5c-0.4-0.6-0.9-1.1-1.5-1.5c-0.5-0.6-1-1.1-1.6-1.5c-0.5-0.6-1.1-1.1-1.8-1.5
			c-0.6-0.6-1.2-1.1-1.9-1.5c-0.6-0.6-1.3-1.1-2.1-1.4c-0.7-0.6-1.4-1-2.2-1.3c-0.7-0.6-1.6-1-2.4-1.2c-0.7-0.5-1.6-0.8-2.4-1
			c-0.7-0.4-1.5-0.7-2.3-0.9c-0.7-0.4-1.5-0.6-2.3-0.7c-0.7-0.3-1.5-0.5-2.2-0.6c-0.7-0.2-1.5-0.4-2.2-0.4c-0.7-0.2-1.3-0.3-2-0.3
			h-0.1c-0.5-0.1-1.1-0.2-1.6-0.2h-0.5c-0.4-0.1-0.9-0.1-1.3-0.1h-0.8c-0.3,0-0.6,0-1,0c-0.3,0-0.7,0-1,0h-0.6c-0.4,0-0.8,0-1.3,0
			h-0.1c-0.5,0-1,0-1.5,0.1l0,0c-0.6,0-1.1,0-1.7,0.2c-0.6,0-1.1,0.1-1.6,0.2c-0.5,0-1,0.1-1.5,0.2c-0.5,0-1,0.1-1.4,0.2
			c-0.4,0-0.9,0.1-1.3,0.3c-0.4,0-0.8,0.1-1.2,0.2c-0.4,0.1-0.7,0.1-1.1,0.2l-0.9,0.2l-0.9,0.2c-0.4,0.1-0.7,0.2-1,0.3
			c-0.4,0.1-0.8,0.2-1.2,0.3c-0.4,0.1-0.9,0.2-1.3,0.4c-0.5,0.1-0.9,0.2-1.4,0.4c-0.5,0.1-1,0.3-1.5,0.5l-0.8,0.3l-0.8-0.3
			c-0.5-0.2-1-0.4-1.5-0.5c-0.4-0.2-0.9-0.4-1.3-0.5c-0.4-0.2-0.8-0.3-1.3-0.4c-0.4-0.2-0.8-0.3-1.1-0.3c-0.3-0.1-0.7-0.2-1-0.3
			c-0.6-0.2-1.2-0.3-1.8-0.5c-0.3-0.1-0.7-0.2-1-0.3c-0.4-0.1-0.8-0.2-1.2-0.3c-0.4-0.1-0.9-0.2-1.3-0.3c-0.5-0.1-0.9-0.2-1.4-0.3
			c-0.5-0.1-1-0.2-1.5-0.3c-0.5-0.1-1.1-0.2-1.6-0.2c-0.6-0.1-1.1-0.2-1.7-0.2l0,0c-0.5-0.1-1-0.2-1.5-0.2H83c-0.4,0-0.8,0-1.2,0H81
			h-1h-1h-0.8c-0.4,0-0.9,0-1.3,0.1h-0.5c-0.6,0-1.1,0.1-1.7,0.2h-0.1c-0.7,0-1.4,0.1-2,0.3c-0.8,0-1.5,0.2-2.2,0.4
			c-0.8,0.1-1.5,0.2-2.3,0.5c-0.8,0.1-1.6,0.3-2.3,0.7c-0.9,0.1-1.7,0.4-2.4,0.8c-0.9,0.2-1.7,0.5-2.4,1c-0.9,0.2-1.7,0.6-2.4,1.1
			c-0.8,0.3-1.6,0.7-2.2,1.3c-0.8,0.3-1.5,0.8-2.1,1.4c-0.7,0.4-1.4,0.8-2,1.4c-0.7,0.4-1.3,0.9-1.8,1.5c-0.6,0.4-1.2,0.9-1.7,1.5
			c-0.6,0.4-1.1,0.9-1.5,1.5c-0.5,0.4-1,0.9-1.4,1.5c-0.5,0.4-0.9,0.9-1.2,1.5c-0.4,0.4-0.8,0.9-1.1,1.4c-0.4,0.4-0.7,0.9-1,1.4
			c-0.3,0.4-0.7,0.8-0.9,1.3c-0.3,0.4-0.6,0.8-0.8,1.2c-0.3,0.4-0.5,0.7-0.7,1.1c-0.2,0.3-0.4,0.7-0.6,1c-0.2,0.3-0.3,0.6-0.5,0.9
			c-2,3.5-0.7,8,2.8,10c1,0.6,2.2,0.9,3.4,0.9l0,0c2.8,0,5.4-1.7,6.6-4.2c0.1-0.2,0.2-0.4,0.3-0.6c0.2-0.2,0.3-0.5,0.4-0.7
			c0.2-0.3,0.3-0.5,0.5-0.8c0.2-0.3,0.4-0.6,0.6-0.9c0.2-0.3,0.4-0.6,0.6-0.9c0.3-0.3,0.5-0.6,0.7-1c0.3-0.3,0.5-0.7,0.8-1
			c0.3-0.3,0.6-0.7,0.9-1c0.4-0.3,0.7-0.7,1-1c0.4-0.3,0.7-0.7,1-1c0.4-0.3,0.8-0.6,1.1-1c0.4-0.3,0.9-0.6,1.2-1
			c0.5-0.3,0.9-0.6,1.3-1c0.5-0.3,1-0.6,1.4-0.9c0.5-0.2,1-0.5,1.5-0.9c0.6-0.2,1.1-0.5,1.6-0.8c0.6-0.2,1.1-0.4,1.6-0.7
			c0.6-0.1,1.2-0.4,1.8-0.7c0.5-0.1,1.1-0.2,1.6-0.4c0.5-0.1,1-0.2,1.5-0.4c0.5,0,1-0.1,1.5-0.3c0.5,0,1-0.1,1.5-0.2h0.1
			c0.4,0,0.9,0,1.3-0.1h0.5h1h0.8c0.2,0,0.4,0,0.6,0c0.3,0,0.7,0,1,0h0.3c0.4,0,0.8,0,1.3,0l0,0l1.3,0.1c0.4,0.1,0.8,0.1,1.2,0.2
			c0.3,0.1,0.6,0.1,0.9,0.2L85.9,43c-0.7,0.4-1.4,1-1.9,1.7c-0.7,0.5-1.4,1.1-1.9,1.8c-0.7,0.5-1.3,1.2-1.8,1.9
			c-0.6,0.5-1.2,1.1-1.6,1.9c-0.5,0.5-1,1.1-1.4,1.8c-0.5,0.5-0.9,1.1-1.2,1.8c-0.5,0.5-0.9,1.2-1.1,1.8c-0.4,0.5-0.8,1.1-1,1.8
			c-0.4,0.5-0.7,1.1-0.9,1.8c-0.4,0.5-0.7,1.1-0.9,1.8c-0.3,0.5-0.6,1.1-0.8,1.7c-0.3,0.5-0.5,1.1-0.7,1.7c-0.3,0.5-0.5,1.1-0.6,1.6
			c-0.2,0.5-0.4,1.1-0.5,1.6c-0.2,0.5-0.4,1-0.5,1.5c-0.2,0.5-0.3,1-0.4,1.5c-0.1,0.5-0.2,0.9-0.3,1.4c-0.1,0.5-0.2,0.9-0.3,1.4
			c-0.2,0.5-0.2,1.1-0.2,1.7c-0.2,0.6-0.2,1.2-0.2,1.8v0.1c-0.1,0.5-0.1,1-0.1,1.5v0.5c0,0.4,0,0.7,0,1.1c0,0.3,0,0.6,0,0.9
			c0,0.3,0,0.5,0,0.7c0,0.4,0,0.8,0,1.2v0.3c0,0.6,0.1,1.1,0.2,1.6c0,0.7,0.1,1.3,0.3,2c0,0.7,0.2,1.3,0.4,2c0.1,0.7,0.2,1.3,0.5,2
			c0.1,0.7,0.3,1.3,0.6,1.9c0.1,0.7,0.4,1.3,0.7,1.9c0.2,0.6,0.4,1.2,0.8,1.8c0.2,0.6,0.5,1.2,0.9,1.7c0.3,0.6,0.6,1.2,1,1.7
			c0.3,0.7,0.7,1.3,1.2,1.8c0.4,0.7,0.9,1.4,1.5,2c0.4,0.8,1,1.5,1.7,2c0.5,0.7,1.1,1.3,1.8,1.8c0.5,0.6,1.1,1.2,1.8,1.6
			c0.5,0.6,1.1,1.1,1.8,1.4c0.6,0.5,1.2,0.9,1.8,1.2c0.6,0.4,1.2,0.8,1.8,1.1c0.5,0.4,1.1,0.7,1.8,0.9c0.5,0.3,1.1,0.6,1.7,0.8
			c0.5,0.3,1.1,0.5,1.7,0.6c0.5,0.2,1,0.4,1.5,0.5c0.5,0.2,0.9,0.3,1.4,0.4c0.4,0.2,0.9,0.3,1.3,0.3c0.4,0.1,0.8,0.2,1.2,0.2
			c0.6,0.1,1.1,0.2,1.7,0.2c0.5,0.1,1.1,0.2,1.6,0.2h0.4c0.4,0,0.9,0,1.3,0h0.5c0.4,0,0.9,0,1.3,0h0.4c0.5,0,1.1-0.1,1.6-0.2
			c0.6,0,1.2-0.1,1.8-0.2c0.5,0,0.9,0,1.4-0.1c0.5-0.1,0.9-0.2,1.3-0.3c0.5-0.1,1-0.2,1.5-0.4c0.5-0.1,1-0.3,1.5-0.5
			c0.6-0.1,1.1-0.3,1.7-0.6c0.6-0.2,1.2-0.4,1.7-0.7c0.6-0.2,1.2-0.5,1.8-0.9c0.7-0.3,1.3-0.6,1.8-1c0.7-0.3,1.3-0.7,1.9-1.2
			c0.7-0.4,1.3-0.8,1.9-1.4c0.7-0.4,1.3-1,1.8-1.6c0.7-0.5,1.3-1.1,1.8-1.8c0.7-0.5,1.3-1.2,1.8-2c0.6-0.6,1.1-1.2,1.6-2
			c0.5-0.5,0.9-1.1,1.2-1.8c0.4-0.5,0.8-1.1,1-1.7c0.4-0.5,0.7-1.1,0.9-1.7c0.4-0.5,0.6-1.1,0.8-1.8c0.3-0.6,0.6-1.2,0.8-1.9
			c0.3-0.6,0.5-1.2,0.6-1.9c0.3-0.6,0.5-1.3,0.5-1.9c0.2-0.6,0.4-1.3,0.4-2c0.2-0.6,0.3-1.3,0.3-2c0.1-0.5,0.2-1.1,0.2-1.6v-0.3
			c0.1-0.4,0.1-0.8,0.1-1.2c0-0.2,0-0.5,0-0.7c0-0.2,0-0.6,0-0.9c0-0.4,0-0.7,0-1.1c0-0.2,0-0.3,0-0.5c0-0.5,0-1-0.1-1.5v-0.1
			c0-0.6-0.1-1.2-0.2-1.8c0-0.6-0.1-1.1-0.2-1.7c0-0.5-0.1-1-0.2-1.4c-0.1-0.5-0.1-1-0.3-1.4c-0.1-0.5-0.2-1-0.4-1.5
			c-0.1-0.5-0.2-1.1-0.4-1.6c-0.1-0.6-0.3-1.1-0.5-1.6c-0.1-0.6-0.3-1.1-0.6-1.7c-0.1-0.6-0.3-1.2-0.6-1.7c-0.2-0.6-0.4-1.2-0.7-1.7
			c-0.2-0.6-0.5-1.2-0.8-1.8c-0.2-0.6-0.5-1.3-0.9-1.8c-0.2-0.6-0.6-1.3-1-1.8c-0.3-0.7-0.7-1.3-1.1-1.8c-0.3-0.7-0.7-1.3-1.2-1.8
			c-0.3-0.7-0.8-1.3-1.3-1.8c-0.4-0.7-0.9-1.3-1.6-1.9c-0.4-0.8-1-1.4-1.7-2c-0.5-0.7-1.1-1.4-1.8-1.9c-0.5-0.7-1.2-1.3-1.9-1.7
			c-0.2-0.2-0.4-0.4-0.6-0.6l0.9-0.2l1.2-0.1c0.4,0,0.8-0.1,1.2-0.1l0,0c0.4,0,0.8,0,1.3,0h0.3c0.3,0,0.7,0,1,0h0.6h0.8
			c0.3,0,0.6,0,1,0h0.4c0.4,0.1,0.9,0.1,1.3,0.1h0.1c0.5,0.1,1,0.2,1.5,0.2c0.5,0.1,1,0.2,1.5,0.3c0.5,0.2,1,0.3,1.5,0.4
			c0.5,0.2,1,0.4,1.5,0.5c0.5,0.3,1,0.5,1.6,0.6c0.5,0.3,1,0.5,1.6,0.7c0.5,0.3,1,0.6,1.6,0.8c0.5,0.4,1,0.7,1.5,0.9
			c0.4,0.4,0.9,0.7,1.4,1c0.4,0.4,0.8,0.7,1.3,1c0.4,0.4,0.8,0.7,1.2,1c0.3,0.4,0.7,0.7,1.1,1c0.3,0.4,0.6,0.7,1,1
			c0.3,0.4,0.6,0.8,1,1.1c0.3,0.4,0.5,0.7,0.9,1c0.2,0.4,0.5,0.7,0.8,1c0.2,0.4,0.4,0.7,0.7,1c0.2,0.3,0.4,0.6,0.6,0.9
			c0.2,0.3,0.3,0.6,0.5,0.9c0.2,0.3,0.3,0.5,0.5,0.8c0.1,0.3,0.2,0.5,0.4,0.7l0.3,0.6c1.5,3.7,5.7,5.4,9.4,3.9
			c3.7-1.5,5.4-5.7,3.9-9.4C167.4,54.2,167.2,53.9,167.1,53.7z M120.3,66.1c0.1,0.5,0.3,0.9,0.6,1.3c0.1,0.4,0.3,0.9,0.5,1.3
			c0.1,0.4,0.3,0.8,0.5,1.2c0.1,0.4,0.2,0.8,0.4,1.2c0.1,0.4,0.2,0.8,0.3,1.2c0.1,0.4,0.2,0.8,0.3,1.2c0.1,0.4,0.1,0.7,0.3,1.1
			c0,0.4,0.1,0.7,0.2,1.1c0,0.3,0.1,0.7,0.2,1c0,0.4,0.1,0.8,0.2,1.1c0,0.4,0,0.8,0,1.2v0.1c0,0.4,0,0.7,0,1.1c0,0.2,0,0.3,0,0.5
			c0,0.1,0,0.5,0,0.7v0.9v0.3c-0.1,0.4-0.1,0.8-0.1,1.2c-0.1,0.4-0.2,0.8-0.2,1.2c-0.1,0.4-0.2,0.8-0.2,1.2
			c-0.1,0.4-0.3,0.8-0.3,1.2c-0.1,0.4-0.3,0.7-0.4,1.1c-0.2,0.4-0.3,0.7-0.5,1.1c-0.2,0.3-0.4,0.7-0.5,1.1c-0.2,0.3-0.4,0.7-0.6,1
			c-0.2,0.3-0.4,0.7-0.6,1c-0.3,0.3-0.5,0.7-0.7,1.1c-0.4,0.4-0.7,0.8-1,1.3c-0.4,0.4-0.8,0.8-1.1,1.2c-0.4,0.3-0.8,0.7-1.1,1.1
			c-0.4,0.3-0.8,0.6-1.1,1c-0.4,0.2-0.8,0.5-1.1,0.8c-0.4,0.2-0.8,0.4-1.1,0.7c-0.4,0.2-0.7,0.4-1.1,0.6c-0.4,0.1-0.7,0.3-1,0.5
			c-0.4,0.1-0.7,0.3-1,0.4c-0.3,0.1-0.7,0.2-1,0.4c-0.3,0.1-0.6,0.2-0.9,0.3l-0.9,0.2l-0.8,0.2l-0.8,0.1h-0.8c-0.4,0-0.8,0-1.2,0
			H102c-0.4,0-0.8,0-1.2,0l-0.8-0.1l-0.8-0.1l-0.8-0.2l-0.9-0.2l-1-0.3c-0.3-0.2-0.6-0.3-1-0.4c-0.3-0.1-0.6-0.3-1-0.3
			c-0.3-0.2-0.7-0.4-1-0.5c-0.3-0.2-0.7-0.5-1.1-0.6c-0.3-0.3-0.7-0.5-1.1-0.7c-0.3-0.3-0.7-0.6-1.1-0.9c-0.3-0.4-0.7-0.7-1.1-1
			c-0.3-0.4-0.7-0.8-1.1-1.1c-0.3-0.5-0.7-0.9-1.1-1.3c-0.3-0.5-0.6-0.9-0.9-1.3c-0.2-0.4-0.4-0.7-0.7-1.1c-0.2-0.4-0.4-0.7-0.6-1.1
			c-0.2-0.4-0.3-0.7-0.5-1c-0.1-0.4-0.3-0.7-0.5-1.1c-0.1-0.4-0.3-0.8-0.4-1.1c-0.1-0.4-0.2-0.8-0.4-1.1c-0.1-0.4-0.2-0.8-0.3-1.2
			c0-0.4-0.1-0.8-0.2-1.2c0-0.4-0.1-0.8-0.2-1.2c0-0.4,0-0.8,0-1.2V82c0-0.3,0-0.6,0-0.9c0-0.2,0-0.5,0-0.7c0-0.2,0-0.3,0-0.5
			c0-0.4,0-0.7,0-1.1l0,0c0.1-0.4,0.1-0.8,0.1-1.2c0.1-0.4,0.2-0.7,0.2-1.1c0-0.3,0.1-0.7,0.2-1c0.1-0.4,0.2-0.7,0.2-1.1
			c0.1-0.4,0.2-0.7,0.3-1.1c0.1-0.4,0.3-0.8,0.3-1.2c0.2-0.4,0.3-0.8,0.4-1.2c0.2-0.4,0.3-0.8,0.4-1.2c0.2-0.4,0.4-0.8,0.5-1.2
			c0.2-0.4,0.4-0.8,0.5-1.3c0.3-0.4,0.5-0.8,0.6-1.3c0.3-0.4,0.5-0.8,0.7-1.3c0.3-0.4,0.5-0.8,0.7-1.3c0.3-0.4,0.6-0.8,0.8-1.3
			c0.3-0.4,0.7-0.8,0.9-1.3c0.4-0.4,0.7-0.8,1-1.3c0.4-0.4,0.8-0.9,1.1-1.3c0.5-0.4,0.9-0.9,1.3-1.4c0.5-0.4,1-0.8,1.3-1.3
			c0.5-0.3,0.9-0.7,1.3-1.2c0.5-0.3,1-0.7,1.4-1.1c0.5-0.3,1-0.6,1.4-1c0.5-0.3,1-0.6,1.4-0.9c0.5-0.2,1-0.5,1.4-0.8
			c0.5-0.2,1-0.4,1.4-0.7c0.4-0.1,0.8-0.3,1.1-0.5c0.3,0.2,0.7,0.4,1.1,0.5c0.4,0.3,0.9,0.6,1.4,0.8c0.4,0.3,0.9,0.6,1.4,0.9
			c0.4,0.4,0.9,0.7,1.4,1c0.4,0.4,0.9,0.7,1.4,1c0.4,0.4,0.9,0.8,1.4,1.1c0.4,0.5,0.9,0.9,1.3,1.2c0.4,0.5,0.8,0.9,1.3,1.3
			c0.4,0.5,0.8,1,1.2,1.4c0.3,0.5,0.7,1,1.1,1.4c0.3,0.5,0.6,0.9,1,1.3c0.2,0.5,0.5,0.9,0.9,1.3c0.2,0.5,0.5,0.9,0.8,1.3
			c0.2,0.5,0.4,0.9,0.7,1.3c0.2,0.4,0.4,0.9,0.6,1.3L120.3,66.1z"/>
			<circle id="ab75b0e0-df35-413b-80cb-f3b28d4dab3e" class="st0" cx="74.8" cy="10.6" r="8.6"/>
			<circle id="be9d5696-0bc5-4592-8d33-057c58cc8f17" class="st0" cx="130.5" cy="11.1" r="8.6"/>
		</g>
		<g id="Congle" class="st1">
			<path class="st0" d="M11.5,216.5c-2.9-1.6-5.2-3.9-6.9-6.9s-2.6-6.3-2.6-10c0-3.7,0.9-7,2.6-10c1.7-2.9,4-5.2,6.9-6.9
			c2.9-1.6,6.1-2.5,9.7-2.5c2.6,0,5,0.5,7.3,1.4c2.3,0.9,4.3,2.2,6.1,4c0.7,0.6,1.1,1.5,1.1,2.5c0,0.9-0.3,1.7-1,2.4
			c-0.7,0.7-1.5,1-2.5,1c-0.9,0-1.8-0.3-2.5-1c-1.1-1.1-2.3-1.9-3.7-2.5c-1.4-0.6-2.9-0.9-4.5-0.9c-2.2,0-4.2,0.5-5.9,1.6
			c-1.8,1-3.2,2.5-4.3,4.4c-1,1.9-1.6,4-1.6,6.4c0,2.4,0.5,4.5,1.6,6.4c1,1.9,2.5,3.3,4.3,4.4c1.8,1,3.8,1.6,5.9,1.6
			c1.6,0,3.1-0.3,4.5-0.9c1.4-0.6,2.6-1.4,3.7-2.5c0.7-0.7,1.6-1,2.5-1c1,0,1.8,0.3,2.5,1c0.7,0.7,1,1.5,1,2.5c0,1-0.4,1.9-1.1,2.5
			c-1.8,1.7-3.8,3-6.1,4c-2.3,0.9-4.7,1.4-7.3,1.4C17.7,218.9,14.4,218.1,11.5,216.5z"/>
			<path class="st0" d="M47.6,216.5c-2.9-1.6-5.2-3.9-6.9-6.9c-1.7-2.9-2.6-6.3-2.6-10c0-3.7,0.9-7,2.6-10c1.7-2.9,4-5.2,6.9-6.9
			c2.9-1.6,6.1-2.5,9.7-2.5s6.7,0.8,9.7,2.5c2.9,1.6,5.2,3.9,6.9,6.9c1.7,2.9,2.6,6.3,2.6,10c0,3.7-0.9,7-2.6,10
			c-1.7,2.9-4,5.2-6.9,6.9c-2.9,1.6-6.1,2.5-9.7,2.5S50.5,218.1,47.6,216.5z M63,210.4c1.8-1,3.2-2.5,4.2-4.4c1-1.9,1.5-4,1.5-6.4
			c0-2.4-0.5-4.5-1.5-6.4c-1-1.9-2.4-3.3-4.2-4.4c-1.8-1-3.7-1.6-5.8-1.6s-4,0.5-5.8,1.6c-1.8,1-3.2,2.5-4.2,4.4
			c-1,1.9-1.5,4-1.5,6.4c0,2.4,0.5,4.5,1.5,6.4c1,1.9,2.4,3.3,4.2,4.4c1.8,1,3.7,1.6,5.8,1.6S61.3,211.4,63,210.4z"/>
			<path class="st0" d="M81.5,217.5c-0.7-0.7-1.1-1.6-1.1-2.7v-30.3c0-1,0.4-1.9,1.1-2.7c0.7-0.7,1.6-1.1,2.7-1.1
			c0.7,0,1.3,0.2,1.9,0.5c0.6,0.3,1,0.7,1.3,1.2l16.3,22.1v-19.9c0-1.1,0.4-2,1.1-2.7c0.7-0.7,1.6-1.1,2.7-1.1c1,0,1.9,0.4,2.7,1.1
			c0.7,0.7,1.1,1.6,1.1,2.7v30.3c0,1-0.4,1.9-1.1,2.7c-0.7,0.7-1.6,1.1-2.6,1.1c-0.7,0-1.3-0.2-1.9-0.5c-0.6-0.3-1-0.7-1.4-1.2
			L88,195v19.8c0,1-0.4,1.9-1.2,2.7c-0.8,0.7-1.7,1.1-2.7,1.1C83.1,218.6,82.2,218.2,81.5,217.5z"/>
			<path class="st0" d="M124.7,216.5c-2.9-1.6-5.2-3.9-6.9-6.9s-2.6-6.3-2.6-10c0-3.7,0.9-7,2.6-10c1.7-2.9,4-5.2,6.9-6.9
			c2.9-1.6,6.1-2.5,9.7-2.5c2.6,0,5,0.5,7.3,1.4c2.3,0.9,4.3,2.2,6.1,4c0.7,0.6,1.1,1.5,1.1,2.5c0,0.9-0.3,1.7-1,2.4
			c-0.7,0.7-1.5,1-2.5,1c-0.9,0-1.8-0.3-2.5-1c-1.1-1.1-2.3-1.9-3.7-2.5c-1.4-0.6-2.9-0.9-4.5-0.9c-2.2,0-4.2,0.5-5.9,1.6
			c-1.8,1-3.2,2.5-4.3,4.4c-1,1.9-1.6,4-1.6,6.4c0,2.4,0.5,4.5,1.5,6.4c1,1.9,2.4,3.3,4.2,4.4c1.8,1,3.7,1.6,5.8,1.6
			c2.3,0,4.4-0.6,6.2-1.9c1.8-1.3,3.1-2.9,3.8-5.1h-8.5c-0.9,0-1.7-0.3-2.4-1c-0.7-0.7-1-1.5-1-2.4c0-1,0.3-1.8,1-2.5
			c0.7-0.7,1.5-1,2.4-1h12.5c1.2,0,2.1,0.3,2.8,0.9c0.7,0.6,1,1.5,1,2.6c-0.1,3.2-0.9,6.2-2.4,8.8c-1.6,2.7-3.7,4.7-6.3,6.3
			c-2.7,1.5-5.7,2.3-9,2.3C130.9,218.9,127.6,218.1,124.7,216.5z"/>
			<path class="st0" d="M177.8,212.6c0.7,0.7,1,1.5,1,2.5c0,0.9-0.3,1.7-1,2.4c-0.7,0.7-1.5,1-2.5,1h-15.2c-1,0-1.9-0.4-2.7-1.1
			c-0.7-0.7-1.1-1.6-1.1-2.7v-30.3c0-1.1,0.4-2,1.1-2.7c0.7-0.7,1.6-1.1,2.7-1.1c1.1,0,2,0.4,2.7,1.1s1.1,1.6,1.1,2.7v27.2h11.3
			C176.3,211.6,177.1,212,177.8,212.6z"/>
			<path class="st0" d="M203,212.6c0.7,0.7,1,1.5,1,2.5c0,0.9-0.3,1.7-1,2.4c-0.7,0.7-1.5,1-2.5,1h-15.2c-1,0-1.9-0.4-2.7-1.1
			c-0.7-0.7-1.1-1.6-1.1-2.7v-30.3c0-1.1,0.4-2,1.1-2.7s1.6-1.1,2.7-1.1h15.2c1,0,1.8,0.3,2.5,1c0.7,0.7,1,1.5,1,2.5
			c0,0.9-0.3,1.7-1,2.4c-0.7,0.7-1.5,1-2.5,1h-11.3v8.9h9.7c1,0,1.8,0.3,2.5,1c0.7,0.7,1,1.5,1,2.5c0,0.9-0.3,1.7-1,2.4
			c-0.7,0.7-1.5,1-2.5,1h-9.7v8.2h11.3C201.5,211.6,202.3,212,203,212.6z"/>
		</g>
	</g>
</svg>