<svg id="ff7415fd-58e9-4426-98eb-bef37b22f0a4" data-name="Layer 1" xmlns="http://www.w3.org/2000/svg" viewBox="0 0 139.54 124.27"><defs><style>.b1489798-1fb2-4716-b1bb-37d0e537bd7d{fill:#2871ff;}</style></defs><path class="b1489798-1fb2-4716-b1bb-37d0e537bd7d" d="M138.54,55.6a9.33,9.33,0,0,0-.5-1c-.42-.79-.85-1.56-1.31-2.33a7.93,7.93,0,0,0-.82-1.33,8,8,0,0,0-.94-1.43A7.46,7.46,0,0,0,133.91,48a7.6,7.6,0,0,0-1.2-1.57,8.15,8.15,0,0,0-1.32-1.61,8,8,0,0,0-1.46-1.62,8.34,8.34,0,0,0-1.61-1.64c-1.17-1.14-2.4-2.22-3.67-3.24a7.77,7.77,0,0,0-2.08-1.56,48.88,48.88,0,0,0-7.14-4.22A47.38,47.38,0,0,0,108,29.71a55.74,55.74,0,0,0-7-1.45h-.16A8.77,8.77,0,0,0,99,28h-.5a8.1,8.1,0,0,0-1.39-.15h-.81a8.44,8.44,0,0,0-1-.09,10.14,10.14,0,0,0-1.1.06h-.68a7.66,7.66,0,0,0-1.35.09h-.36a7.81,7.81,0,0,0-1.6.14h0a7.84,7.84,0,0,0-1.81.19,7.51,7.51,0,0,0-1.76.22,7.47,7.47,0,0,0-1.63.25A8.25,8.25,0,0,0,83.5,29a7.49,7.49,0,0,0-1.41.28,9.4,9.4,0,0,0-1.28.27,8.8,8.8,0,0,0-1.13.26,8.49,8.49,0,0,0-1,.22,8.56,8.56,0,0,0-1,.24,8.92,8.92,0,0,0-1.13.29,8,8,0,0,0-1.25.35,8.55,8.55,0,0,0-1.39.42,7.44,7.44,0,0,0-1.47.48,8,8,0,0,0-1.58.56,9,9,0,0,0-.88.28c-.28-.11-.56-.2-.85-.29-1-.39-2-.75-3-1.09a7.39,7.39,0,0,0-1.38-.44,7.8,7.8,0,0,0-1.25-.37,6.23,6.23,0,0,0-1.12-.32l-1.92-.49a8.62,8.62,0,0,0-1.14-.28,7.79,7.79,0,0,0-1.27-.29,7.55,7.55,0,0,0-1.41-.31,8.07,8.07,0,0,0-1.54-.3c-1.12-.21-2.25-.39-3.38-.53a7.77,7.77,0,0,0-1.8-.21h-.05a7.74,7.74,0,0,0-1.59-.17h-.37a7.7,7.7,0,0,0-1.35-.12c-.23,0-.45,0-.68,0a6.58,6.58,0,0,0-1.09-.08,6.73,6.73,0,0,0-1,.07,7.34,7.34,0,0,0-.81-.05,8.19,8.19,0,0,0-1.4.13h-.49a7.6,7.6,0,0,0-1.78.21h-.16A8,8,0,0,0,37,28a46.49,46.49,0,0,0-4.83,1,7.34,7.34,0,0,0-2.47.73,8,8,0,0,0-2.5.9,7.36,7.36,0,0,0-2.54,1.09,46.81,46.81,0,0,0-4.95,2.62,48.63,48.63,0,0,0-6.31,4.56,8,8,0,0,0-1.79,1.6A7.82,7.82,0,0,0,10,42.15q-1.48,1.53-2.84,3.18a7.93,7.93,0,0,0-1.23,1.54,8.25,8.25,0,0,0-1.08,1.48,8.18,8.18,0,0,0-1,1.41A8.57,8.57,0,0,0,3,51.07c-.48.76-.93,1.53-1.36,2.32a8.54,8.54,0,0,0-.51.94,7.76,7.76,0,1,0,13.46,7.72q.16-.28.3-.57c.13-.22.25-.44.36-.67s.3-.51.43-.78a9,9,0,0,0,.5-.85,8.45,8.45,0,0,0,.6-1,6.71,6.71,0,0,0,.67-1,6.67,6.67,0,0,0,.77-1.06A6.85,6.85,0,0,0,19,55.09,7.75,7.75,0,0,0,20,54a7.16,7.16,0,0,0,1-1.13,8,8,0,0,0,1.13-1.12,6.77,6.77,0,0,0,1.22-1.11c.88-.75,1.8-1.46,2.75-2.13a7,7,0,0,0,1.52-1,6.88,6.88,0,0,0,1.64-.95A7.22,7.22,0,0,0,31,45.69,7.64,7.64,0,0,0,32.68,45a8.5,8.5,0,0,0,1.69-.6A7.37,7.37,0,0,0,36,43.88a8.31,8.31,0,0,0,1.64-.38,8,8,0,0,0,1.61-.29,7.68,7.68,0,0,0,1.58-.2H41a8.07,8.07,0,0,0,1.39-.12h.5a7,7,0,0,1,1.83,0h.68a8,8,0,0,0,1.09.08h.37a7.7,7.7,0,0,0,1.35.12h0a7.77,7.77,0,0,0,1.36.16,8.29,8.29,0,0,0,1.31.2,8.37,8.37,0,0,0,1,.18c-.86.86-1.75,1.68-2.69,2.46q-2.05,1.9-3.92,4A51.25,51.25,0,0,0,40.78,56q-1.26,1.89-2.34,3.87a7.8,7.8,0,0,0-1,1.92,7.6,7.6,0,0,0-.91,1.88,7.47,7.47,0,0,0-.8,1.86A7.68,7.68,0,0,0,35,67.32a7.94,7.94,0,0,0-.63,1.77,7.42,7.42,0,0,0-.55,1.73,8.19,8.19,0,0,0-.49,1.67c-.28,1-.53,2.09-.76,3.14s-.43,2.19-.57,3.3a8,8,0,0,0-.26,2v.13a7.74,7.74,0,0,0-.17,1.59v.54a7.85,7.85,0,0,0-.09,1.19,7.26,7.26,0,0,0,.06.93v.79a7.7,7.7,0,0,0,.12,1.35v.37a7.89,7.89,0,0,0,.2,1.75,7.6,7.6,0,0,0,.31,2.12,7.53,7.53,0,0,0,.42,2.1,34.94,34.94,0,0,0,1.19,4.14,7.94,7.94,0,0,0,.76,2,8,8,0,0,0,.85,1.92,8.51,8.51,0,0,0,1,1.85,7.93,7.93,0,0,0,1.1,1.86,7.72,7.72,0,0,0,1.3,2,8.29,8.29,0,0,0,1.65,2.12,7.83,7.83,0,0,0,1.85,2.16,39.75,39.75,0,0,0,3.88,3.69,7.69,7.69,0,0,0,2,1.54,37.48,37.48,0,0,0,5.81,3.47,7.36,7.36,0,0,0,1.83.83,7.93,7.93,0,0,0,1.77.69,7.46,7.46,0,0,0,1.67.56,8.34,8.34,0,0,0,1.55.45,8.81,8.81,0,0,0,1.43.36,7.47,7.47,0,0,0,1.33.27c1.2.17,2.41.32,3.62.45h.47a7.19,7.19,0,0,0,1.39.13h.51a8.17,8.17,0,0,0,1.4-.1h.47a7.93,7.93,0,0,0,1.75-.17,7.84,7.84,0,0,0,1.87-.22,7.71,7.71,0,0,0,1.34-.25,7.16,7.16,0,0,0,1.44-.33,8.36,8.36,0,0,0,1.56-.42,7.39,7.39,0,0,0,1.67-.53,7.93,7.93,0,0,0,1.78-.66,40.25,40.25,0,0,0,3.77-1.75,7.29,7.29,0,0,0,2-1.12,8,8,0,0,0,2-1.3,7.94,7.94,0,0,0,2-1.5,7.63,7.63,0,0,0,2-1.71,7.66,7.66,0,0,0,1.94-1.91,51.61,51.61,0,0,0,3.58-4.23,7.53,7.53,0,0,0,1.34-1.92,7.92,7.92,0,0,0,1.13-1.84,8.14,8.14,0,0,0,1-1.83,7.81,7.81,0,0,0,.88-1.9,7.54,7.54,0,0,0,.8-2,37.23,37.23,0,0,0,1.72-6.22,7.9,7.9,0,0,0,.35-2.11,7.83,7.83,0,0,0,.23-1.74v-.38a7.39,7.39,0,0,0,0-1.33V86c0-.26.07-.62.08-.93a8.06,8.06,0,0,0-.08-1.2,4.69,4.69,0,0,0,0-.53,8.46,8.46,0,0,0-.13-1.59v-.14a7.1,7.1,0,0,0-.22-2,46.6,46.6,0,0,0-.83-4.84,7.51,7.51,0,0,0-.39-1.62,8,8,0,0,0-.45-1.68c-.33-1.19-.71-2.36-1.12-3.52a8.28,8.28,0,0,0-.7-1.85,7.3,7.3,0,0,0-.77-1.87,8.44,8.44,0,0,0-.87-1.91c-.64-1.32-1.33-2.61-2.06-3.88a7.78,7.78,0,0,0-1.19-1.95,7.63,7.63,0,0,0-1.32-2,7.86,7.86,0,0,0-1.43-2,8,8,0,0,0-1.66-2,7.69,7.69,0,0,0-1.88-2.1,7.32,7.32,0,0,0-2-2,8,8,0,0,0-2-1.85c-.2-.23-.41-.44-.63-.65a7.55,7.55,0,0,0,1-.17,8.24,8.24,0,0,0,1.31-.17,7.75,7.75,0,0,0,1.36-.14h0a7.66,7.66,0,0,0,1.35-.09h.36a8.1,8.1,0,0,0,1.1,0h1.49a8.44,8.44,0,0,0,1,.09h.49a8.1,8.1,0,0,0,1.39.15h.16a7.73,7.73,0,0,0,1.58.23A7.92,7.92,0,0,0,102,44a34,34,0,0,1,3.28.92,7.25,7.25,0,0,0,1.68.63,7.39,7.39,0,0,0,1.7.75,7.91,7.91,0,0,0,1.71.88,7.53,7.53,0,0,0,1.62,1,7.61,7.61,0,0,0,1.51,1,7.31,7.31,0,0,0,1.4,1.07c.87.71,1.71,1.46,2.51,2.24a30.7,30.7,0,0,1,2.13,2.29,8.26,8.26,0,0,0,.92,1.13c.55.7,1.08,1.43,1.58,2.17a8.15,8.15,0,0,0,.65,1,7.72,7.72,0,0,0,.59,1,6.53,6.53,0,0,0,.48.86q.2.41.42.78a5.58,5.58,0,0,0,.35.69,7.78,7.78,0,1,0,14-6.84ZM88.14,69a9.23,9.23,0,0,0,.63,1.4,8.61,8.61,0,0,0,.57,1.37,8,8,0,0,0,.49,1.34,8.89,8.89,0,0,0,.44,1.32,8.29,8.29,0,0,0,.38,1.29A9.21,9.21,0,0,0,91,77a8.09,8.09,0,0,0,.28,1.18,7.71,7.71,0,0,0,.24,1.16,8,8,0,0,0,.19,1.09,8.39,8.39,0,0,0,.2,1.22A7.4,7.4,0,0,0,92,82.94v.14a6.73,6.73,0,0,0,.07,1.19,4.69,4.69,0,0,0,0,.53,5.21,5.21,0,0,0,0,.79,7.43,7.43,0,0,0-.07.94v.37a8.2,8.2,0,0,0-.14,1.31,9.23,9.23,0,0,0-.21,1.28,6.83,6.83,0,0,0-.27,1.27A7.73,7.73,0,0,0,91.05,92a23.39,23.39,0,0,1-.89,2.42A24.06,24.06,0,0,1,89,96.7a7.06,7.06,0,0,0-.67,1.12A7,7,0,0,0,87.56,99a7.81,7.81,0,0,0-1,1.36,7.78,7.78,0,0,0-1.21,1.35,7.44,7.44,0,0,0-1.21,1.17,7.83,7.83,0,0,0-1.22,1,7.32,7.32,0,0,0-1.19.88,7.7,7.7,0,0,0-1.2.78,7.33,7.33,0,0,0-1.16.65,9.4,9.4,0,0,0-1.15.56,9,9,0,0,0-1.11.47,7.09,7.09,0,0,0-1,.38,6.85,6.85,0,0,0-1,.32,7,7,0,0,0-1,.25c-.29,0-.58.11-.87.19s-.55.09-.83.15a15.4,15.4,0,0,1-2.14.24,3.69,3.69,0,0,0-.47,0H68.56a8.07,8.07,0,0,0-1.3-.13,8.17,8.17,0,0,0-.84-.14,7.63,7.63,0,0,0-.83-.17c-.28-.08-.57-.15-.86-.21s-.63-.19-1-.26a6.93,6.93,0,0,0-1-.34,8.68,8.68,0,0,0-1-.4,7.18,7.18,0,0,0-1.1-.48A7.09,7.09,0,0,0,59.5,106a7.49,7.49,0,0,0-1.16-.68,6.75,6.75,0,0,0-1.18-.79,7.42,7.42,0,0,0-1.18-.91,7.6,7.6,0,0,0-1.19-1,8.37,8.37,0,0,0-1.19-1.19,7.81,7.81,0,0,0-1.2-1.37,7.14,7.14,0,0,0-1-1.38,8.17,8.17,0,0,0-.76-1.18A8.54,8.54,0,0,0,50,96.39a8,8,0,0,0-.58-1.13,7,7,0,0,0-.52-1.15,7.46,7.46,0,0,0-.46-1.22A8.66,8.66,0,0,0,48,91.67a7.75,7.75,0,0,0-.32-1.26,9.2,9.2,0,0,0-.25-1.27,9.33,9.33,0,0,0-.19-1.29,7.07,7.07,0,0,0-.12-1.3v-.38a7.26,7.26,0,0,0-.06-.93,5.21,5.21,0,0,0,0-.79,4.69,4.69,0,0,0,0-.53,8.08,8.08,0,0,0,.09-1.2v-.13a8.47,8.47,0,0,0,.16-1.33c.13-.77.28-1.54.43-2.3A9.25,9.25,0,0,0,48,77.8a7.85,7.85,0,0,0,.3-1.18,7.61,7.61,0,0,0,.35-1.24,7.93,7.93,0,0,0,.4-1.28,7.64,7.64,0,0,0,.46-1.32,6.93,6.93,0,0,0,.52-1.33,7.46,7.46,0,0,0,.59-1.36,8.74,8.74,0,0,0,.66-1.38A9.15,9.15,0,0,0,52,67.32a8.44,8.44,0,0,0,.8-1.4,8.1,8.1,0,0,0,.89-1.4,8.11,8.11,0,0,0,1-1.4,8,8,0,0,0,1-1.39,7.19,7.19,0,0,0,1.19-1.45,8.3,8.3,0,0,0,1.36-1.48,8,8,0,0,0,1.44-1.41,8.55,8.55,0,0,0,1.47-1.28,7.36,7.36,0,0,0,1.48-1.19,7.52,7.52,0,0,0,1.51-1.07,7.61,7.61,0,0,0,1.51-1,33.83,33.83,0,0,1,3-1.68,7.9,7.9,0,0,0,1.22-.56,8.66,8.66,0,0,0,1.19.57,34.4,34.4,0,0,1,3,1.74,8.26,8.26,0,0,0,1.49,1A8.08,8.08,0,0,0,77.07,55a7.4,7.4,0,0,0,1.46,1.21A7.23,7.23,0,0,0,80,57.54,7.35,7.35,0,0,0,81.39,59a8.32,8.32,0,0,0,1.33,1.51A7.88,7.88,0,0,0,83.89,62a8.11,8.11,0,0,0,1,1.4,7.44,7.44,0,0,0,.94,1.42,8.52,8.52,0,0,0,.86,1.42,7.45,7.45,0,0,0,.78,1.41A7.08,7.08,0,0,0,88.13,69Z"/><circle class="b1489798-1fb2-4716-b1bb-37d0e537bd7d" cx="39.22" cy="9.24" r="9.24"/><circle class="b1489798-1fb2-4716-b1bb-37d0e537bd7d" cx="99.12" cy="9.79" r="9.24"/></svg>