<svg width="63" height="38" viewBox="0 0 63 38" fill="none" xmlns="http://www.w3.org/2000/svg">
<path d="M58.5325 1.13562C57.0339 1.63518 52.4755 4.25782 50.5709 5.66281C49.4157 6.56825 49.1035 6.97413 49.1035 7.69224C49.1035 9.09722 50.3524 9.12845 52.132 7.72346C52.9126 7.13024 54.9732 5.72525 56.6905 4.63248C59.3443 2.88405 60.4995 1.85373 60.4995 1.19807C60.4995 0.792182 59.5629 0.76096 58.5325 1.13562Z" fill="white"/>
<path d="M37.8644 1.79122C34.5549 3.50843 31.7137 6.56818 29.9028 10.4397L28.7788 12.8438L27.7485 11.4076C25.6566 8.50394 22.9715 7.34873 20.6611 8.31661C19.0063 9.00349 18.1946 9.81526 17.414 11.6261C15.8529 15.2791 16.3837 19.5565 18.819 23.1783C20.5674 25.7385 29.653 34.6992 30.496 34.6992C30.8395 34.6992 31.2766 34.9802 31.4639 35.3236C31.9634 36.229 33.1499 36.1042 34.0553 35.0114C34.4924 34.5118 35.2105 33.0756 35.6789 31.8267C36.1472 30.5779 37.8956 26.519 39.5192 22.8348C43.7029 13.3746 44.3273 11.4076 44.3898 8.1605C44.421 5.97496 44.2961 5.25686 43.7029 4.0392C43.297 3.19621 42.6101 2.25955 42.173 1.91611C41.2051 1.16678 39.1757 1.10434 37.8644 1.79122ZM40.3622 3.66454C41.2988 4.0392 41.892 5.69396 41.8608 8.03561C41.7984 10.5646 41.0803 13.0311 39.2382 16.6841C38.5201 18.0579 37.4273 20.462 36.7404 22.0231C34.8983 26.3317 31.339 33.3878 30.9956 33.4191C30.8395 33.4503 29.6218 32.2326 28.3417 30.7652C20.3177 21.5547 19.2873 19.9936 19.0375 16.5904C18.9127 14.8108 19.0063 14.2176 19.662 12.8126C21.4416 8.94105 24.2516 9.81526 26.9055 15.0606C28.3105 17.8393 28.8412 18.4637 29.7467 18.4637C30.5272 18.4637 31.1517 17.371 31.1517 16.0284C31.1829 12.1257 34.8983 5.72518 38.083 4.13286C39.5816 3.41476 39.6128 3.38354 40.3622 3.66454Z" fill="white"/>
<path d="M0.709898 12.3456C0.147902 12.7515 0.147902 12.7827 0.772342 13.0949C1.61533 13.5633 6.48596 14.4062 8.20317 14.4062C9.82671 14.4062 10.6073 13.7194 9.82671 12.9388C8.98372 12.0646 1.74022 11.5963 0.709898 12.3456Z" fill="white"/>
<path d="M53.8805 15.6546C49.3533 15.9044 48.0107 16.3102 48.0107 17.3718C48.0107 18.6831 49.2596 18.7456 55.6601 17.8401C60.5932 17.122 62.0606 16.7161 62.0606 16.1229C62.0606 15.2799 61.3425 15.2487 53.8805 15.6546Z" fill="white"/>
<path d="M6.36073 22.651C3.64441 23.5564 2.42676 24.3057 2.42676 25.0551C2.42676 25.6171 3.64441 25.6171 5.98606 25.0551C7.35983 24.7116 9.1707 24.337 9.98247 24.2433C13.0422 23.8374 13.7291 21.808 10.8255 21.6831C9.95125 21.6519 8.32771 21.9953 6.36073 22.651Z" fill="white"/>
<path d="M46.9811 24.8662C46.3254 25.5219 46.3254 25.7404 47.0123 26.3337C47.5431 26.8332 53.1318 28.1445 54.6617 28.1445C56.4726 28.1445 54.9739 26.3961 52.32 25.397C49.6974 24.4291 47.6367 24.2106 46.9811 24.8662Z" fill="white"/>
<path d="M12.9176 32.7033C11.6063 33.8272 10.3574 35.0761 10.17 35.482C9.8266 36.2626 10.0139 37.1992 10.5135 37.1992C11.013 37.1992 16.633 32.7969 17.0077 32.11C17.2574 31.6417 17.2574 31.2983 17.0389 31.0485C16.3832 30.2367 15.2904 30.6738 12.9176 32.7033Z" fill="white"/>
</svg>
