<svg width="111" height="67" viewBox="0 0 111 67" fill="none" xmlns="http://www.w3.org/2000/svg">
<path fill-rule="evenodd" clip-rule="evenodd" d="M79.9689 62.8508C89.8713 63.0896 99.9909 62.612 109.459 65.9982C110.024 66.1979 110.644 65.907 110.848 65.3427C111.048 64.7783 110.757 64.1575 110.193 63.9535C100.503 60.4891 90.1535 60.9233 80.021 60.6801C79.4219 60.6628 78.9227 61.1403 78.9096 61.7394C78.8923 62.3385 79.3698 62.8334 79.9689 62.8508Z" fill="white"/>
<path fill-rule="evenodd" clip-rule="evenodd" d="M79.0788 48.4708C82.1654 45.6307 85.5343 43.5031 89.6064 42.4486C90.1881 42.2984 90.5354 41.7058 90.3878 41.1258C90.2359 40.5458 89.6411 40.1972 89.0637 40.3474C84.6356 41.4935 80.9673 43.7866 77.6114 46.8728C77.1686 47.2783 77.1382 47.9655 77.5463 48.4066C77.9501 48.8472 78.6403 48.8763 79.0788 48.4708Z" fill="white"/>
<path fill-rule="evenodd" clip-rule="evenodd" d="M70.4921 17.4639C71.9074 12.6125 74.6945 8.81735 78.9663 6.0767C79.4699 5.75328 79.6175 5.08126 79.2919 4.57723C78.9707 4.07321 78.2977 3.92646 77.7941 4.24989C73.0665 7.28444 69.9755 11.4842 68.4083 16.8557C68.239 17.4304 68.5733 18.0339 69.1463 18.2015C69.7237 18.3695 70.3272 18.0387 70.4921 17.4639Z" fill="white"/>
<path fill-rule="evenodd" clip-rule="evenodd" d="M21.7172 10.8816C20.875 11.8728 20.1196 12.9407 19.4771 14.0777C19.1906 14.5839 18.687 15.6597 18.6088 16.5822C18.522 17.565 18.8563 18.3942 19.7158 18.831C20.8576 19.4101 21.7693 19.3498 22.4726 18.9994C23.1498 18.663 23.6794 18.0018 24.0137 17.1153C24.6519 15.4209 24.5564 12.8313 24.2221 11.3536C25.1207 10.4263 26.1062 9.58534 27.1611 8.83777C35.0188 3.27008 46.545 5.32308 55.4142 13.6479C58.5182 16.5626 60.0116 22.6838 60.7887 29.2882C61.9999 39.5714 61.3097 51.0567 61.2142 54.4217C61.1924 55.2526 61.2706 55.7457 61.314 55.8443C61.518 56.3288 61.8784 56.4547 62.1302 56.5024C62.4948 56.5675 62.7857 56.4981 63.0201 56.3765C63.337 56.2098 63.5975 55.9163 63.7191 55.4636C63.7842 55.2135 63.8015 54.8653 63.7929 54.4942C63.7842 54.2367 63.7321 53.9554 63.7842 53.7709C64.1228 52.5892 64.5309 51.4353 64.9303 50.2731C66.263 46.3664 67.9866 42.7054 69.9011 39.0487C75.9832 27.4297 81.8656 15.153 91.8375 6.30073C92.2847 5.9035 92.3281 5.21671 91.9287 4.76869C91.5337 4.32067 90.8477 4.27986 90.3962 4.67752C80.2246 13.7048 74.1815 26.1929 67.9779 38.042C66.3499 41.1525 64.8564 44.2674 63.6148 47.5255C63.7407 41.762 63.693 33.7841 62.6381 26.7251C61.7003 20.4472 59.9161 14.8991 56.8989 12.0655C47.1831 2.94578 34.5109 0.967471 25.9065 7.06697C24.9861 7.7199 24.1093 8.43796 23.2931 9.21678C18.7912 1.08774 9.15352 -2.17042 0.635926 1.71764C0.088925 1.96639 -0.149841 2.61064 0.0976118 3.15547C0.349406 3.7003 0.991892 3.94082 1.53889 3.69206C9.21428 0.188651 17.9186 3.31523 21.7172 10.8816ZM22.3467 13.6032C21.995 14.0998 21.6694 14.6147 21.3655 15.147C21.2049 15.4326 20.9271 15.9818 20.8098 16.5192C20.7838 16.6451 20.7795 16.8422 20.7795 16.9334C21.079 17.081 21.3134 17.1522 21.5044 17.0563C21.7432 16.9382 21.8648 16.6603 21.982 16.3499C22.2772 15.5711 22.3727 14.5387 22.3467 13.6032Z" fill="white"/>
</svg>
