<svg width="119" height="63" viewBox="0 0 119 63" fill="none" xmlns="http://www.w3.org/2000/svg">
<path d="M91.5005 53.4218C72.9029 65.6787 37.142 63.6051 18.7857 52.8797C10.4258 47.995 -4.98957 33.8415 4.39078 20.4788C6.04523 18.1219 8.05629 16.2071 10.137 14.5502C33.0359 -3.68351 64.9739 -1.82658 89.5495 9.08365C93.2148 10.7108 96.8214 12.6424 100.14 15.2678C102.621 17.2313 105.021 19.665 106.953 22.5052C112.611 30.8196 111.133 39.1871 105.046 46.236C97.9888 54.4086 88.3382 56.9413 79.2324 58.3283C71.2699 59.5411 63.3172 59.774 55.317 59.279C40.3133 58.3508 23.0224 56.8739 10.4387 45.7004C4.94244 40.82 -0.962562 30.3913 3.7487 21.9508C8.85397 12.8046 20.8916 9.84306 28.9882 7.91305C50.8304 2.70625 85.3907 5.28803 105.286 18.9515C107.432 20.4249 109.605 21.798 111.524 23.7356C113.041 25.2666 114.493 27.0123 115.752 28.9016C124.679 42.2906 104.76 50.7089 97.7353 52.1546C75.6363 56.7026 42.9286 63.2657 22.5766 51.1673" stroke="#F5F5F5" stroke-miterlimit="1.5" stroke-linecap="round" stroke-linejoin="round"/>
</svg>
