<svg width="112" height="110" viewBox="0 0 112 110" fill="none" xmlns="http://www.w3.org/2000/svg">
<path d="M47.4561 14.668C47.7611 21.188 47.3512 27.9114 47.9853 34.3962" stroke="#F2F0E4" stroke-width="2" stroke-miterlimit="1.5" stroke-linecap="round" stroke-linejoin="round"/>
<path d="M29.6377 41.0364C32.9952 40.7982 37.1615 39.4771 40.5034 39.8515" stroke="#F2F0E4" stroke-width="2" stroke-miterlimit="1.5" stroke-linecap="round" stroke-linejoin="round"/>
<path d="M53.5742 38.5859C57.5818 39.0605 61.6033 38.4299 65.6272 38.8855" stroke="#F2F0E4" stroke-width="2" stroke-miterlimit="1.5" stroke-linecap="round" stroke-linejoin="round"/>
<path d="M47.7194 45.2812C47.5828 50.2055 47.6011 55.1303 47.5998 60.0559" stroke="#F2F0E4" stroke-width="2" stroke-miterlimit="1.5" stroke-linecap="round" stroke-linejoin="round"/>
<path d="M38.7923 75.5859C36.5479 75.6274 35.6397 79.095 38.215 79.538C39.3746 79.7374 41.2177 77.9338 40.2307 76.884" stroke="#F2F0E4" stroke-width="2" stroke-miterlimit="1.5" stroke-linecap="round" stroke-linejoin="round"/>
<path d="M62.5253 60.8203C62.1684 64.6925 62.4795 68.534 62.5573 72.4103" stroke="#F2F0E4" stroke-width="2" stroke-miterlimit="1.5" stroke-linecap="round" stroke-linejoin="round"/>
<path d="M53.8564 78.0937C55.1589 77.9313 56.5055 77.6931 57.8217 77.7035" stroke="#F2F0E4" stroke-width="2" stroke-miterlimit="1.5" stroke-linecap="round" stroke-linejoin="round"/>
<path d="M67.8105 77.2973C69.5587 77.354 71.2614 77.1426 73.0032 77.0508" stroke="#F2F0E4" stroke-width="2" stroke-miterlimit="1.5" stroke-linecap="round" stroke-linejoin="round"/>
<path d="M63.1395 82.7461C62.9455 86.9531 62.9884 91.1686 62.9856 95.3796" stroke="#F2F0E4" stroke-width="2" stroke-miterlimit="1.5" stroke-linecap="round" stroke-linejoin="round"/>
<path d="M76.4671 43.0586C73.5487 43.7527 73.0167 47.6844 76.5125 47.7492C77.7264 47.7717 80.2901 45.3906 78.4702 44.5786" stroke="#F2F0E4" stroke-width="2" stroke-miterlimit="1.5" stroke-linecap="round" stroke-linejoin="round"/>
<path d="M78.4899 25.6851C73.9816 24.1611 68.2722 30.8128 73.5126 33.4231C79.1527 36.2329 85.8495 29.2955 79.9012 25.5397" stroke="#F2F0E4" stroke-width="2" stroke-miterlimit="1.5" stroke-linecap="round" stroke-linejoin="round"/>
</svg>
