<svg width="25" height="25" viewBox="0 0 25 25" fill="none" xmlns="http://www.w3.org/2000/svg">
<path fill-rule="evenodd" clip-rule="evenodd" d="M7.81375 11.9587C7.81375 11.5339 8.15815 11.1895 8.58298 11.1895H16.7881C17.2129 11.1895 17.5573 11.5339 17.5573 11.9587C17.5573 12.3836 17.2129 12.728 16.7881 12.728H8.58298C8.15815 12.728 7.81375 12.3836 7.81375 11.9587Z" fill="#F0F0F0"/>
<path fill-rule="evenodd" clip-rule="evenodd" d="M7.81375 16.0613C7.81375 15.6365 8.15815 15.2921 8.58298 15.2921H12.6855C13.1104 15.2921 13.4548 15.6365 13.4548 16.0613C13.4548 16.4861 13.1104 16.8305 12.6855 16.8305H8.58298C8.15815 16.8305 7.81375 16.4861 7.81375 16.0613Z" fill="#F0F0F0"/>
<path fill-rule="evenodd" clip-rule="evenodd" d="M12.6855 5.54848C10.5146 5.54848 7.54857 5.7366 5.69734 5.87205C5.0881 5.91662 4.60806 6.3927 4.55858 7.00039C4.4158 8.75437 4.22401 11.4887 4.22401 13.4972C4.22401 15.5057 4.4158 18.24 4.55858 19.994C4.60806 20.6017 5.0881 21.0778 5.69734 21.1223C7.54857 21.2578 10.5146 21.4459 12.6855 21.4459C14.8565 21.4459 17.8225 21.2578 19.6738 21.1223C20.283 21.0778 20.763 20.6017 20.8125 19.994C20.9553 18.24 21.1471 15.5057 21.1471 13.4972C21.1471 11.4887 20.9553 8.75437 20.8125 7.00039C20.763 6.3927 20.283 5.91662 19.6738 5.87205C17.8225 5.7366 14.8565 5.54848 12.6855 5.54848ZM5.58508 4.33769C7.43714 4.20218 10.4529 4.01002 12.6855 4.01002C14.9182 4.01002 17.934 4.20218 19.786 4.33769C21.1505 4.43752 22.2348 5.51081 22.3459 6.87556C22.4888 8.63093 22.6855 11.4203 22.6855 13.4972C22.6855 15.5741 22.4888 18.3635 22.3459 20.1188C22.2348 21.4836 21.1505 22.5569 19.786 22.6567C17.934 22.7922 14.9182 22.9844 12.6855 22.9844C10.4529 22.9844 7.43714 22.7922 5.58508 22.6567C4.22062 22.5569 3.1363 21.4836 3.02519 20.1188C2.88229 18.3635 2.68555 15.5741 2.68555 13.4972C2.68555 11.4203 2.88229 8.63093 3.02519 6.87556C3.1363 5.51081 4.22062 4.43752 5.58508 4.33769Z" fill="#F0F0F0"/>
<path fill-rule="evenodd" clip-rule="evenodd" d="M9.60862 2.98438C10.0335 2.98438 10.3779 3.32877 10.3779 3.75361V6.31771C10.3779 6.74254 10.0335 7.08694 9.60862 7.08694C9.18379 7.08694 8.83939 6.74254 8.83939 6.31771V3.75361C8.83939 3.32877 9.18379 2.98437 9.60862 2.98438Z" fill="#F0F0F0"/>
<path fill-rule="evenodd" clip-rule="evenodd" d="M15.7625 2.98438C16.1873 2.98438 16.5317 3.32877 16.5317 3.75361L16.5317 6.31771C16.5317 6.74254 16.1873 7.08694 15.7625 7.08694C15.3376 7.08694 14.9932 6.74254 14.9932 6.31771L14.9932 3.75361C14.9932 3.32877 15.3376 2.98437 15.7625 2.98438Z" fill="#F0F0F0"/>
</svg>
