<svg width="16" height="17" viewBox="0 0 16 17" fill="none" xmlns="http://www.w3.org/2000/svg">
<path fill-rule="evenodd" clip-rule="evenodd" d="M7.78918 2.72573L3.78918 4.01983C3.51695 4.1079 3.33333 4.35516 3.33333 4.63367V8.08742C3.33333 9.39816 4.00975 10.5173 4.98955 11.4583C5.97145 12.4014 7.15352 13.0593 7.88457 13.4104C7.96033 13.4468 8.03967 13.4468 8.11543 13.4104C8.84648 13.0593 10.0285 12.4014 11.0105 11.4583C11.9902 10.5173 12.6667 9.39816 12.6667 8.08742V4.63367C12.6667 4.35516 12.483 4.1079 12.2108 4.01983L8.21082 2.72573C8.07397 2.68146 7.92602 2.68146 7.78918 2.72573ZM3.36754 2.79214C2.55086 3.05636 2 3.79814 2 4.63367V8.08742C2 11.6475 5.7068 13.8084 7.29329 14.5703C7.74168 14.7856 8.25832 14.7856 8.70671 14.5703C10.2932 13.8084 14 11.6475 14 8.08742V4.63367C14 3.79814 13.4491 3.05636 12.6325 2.79214L8.63245 1.49805C8.22192 1.36523 7.77808 1.36523 7.36754 1.49805L3.36754 2.79214Z" fill="#ADADAD"/>
<path fill-rule="evenodd" clip-rule="evenodd" d="M10.4721 6.25972C10.7324 6.52006 10.7324 6.94217 10.4721 7.20252L8.18251 9.49207C7.71388 9.9607 6.95409 9.9607 6.48546 9.49207L5.52925 8.53586C5.2689 8.27551 5.2689 7.8534 5.52925 7.59305C5.7896 7.3327 6.21171 7.3327 6.47206 7.59305L7.33398 8.45498L9.52925 6.25972C9.7896 5.99937 10.2117 5.99937 10.4721 6.25972Z" fill="#ADADAD"/>
</svg>
