<svg width="24" height="24" viewBox="0 0 24 24" fill="none" xmlns="http://www.w3.org/2000/svg">
<path d="M14.193 8.28215L14.1767 8.51177L14.3782 8.40042L20.278 5.14001L15.9388 10.2985L15.7906 10.4747L16.0191 10.503L22.7086 11.3331L16.166 12.9559L15.9426 13.0113L16.1108 13.1686L21.0348 17.7722L14.7879 15.2394L14.5745 15.1529L14.6182 15.3789L15.8958 21.9975L12.3307 16.2766L12.209 16.0813L12.1114 16.2898L9.25472 22.3954L9.73313 15.6715L9.74947 15.4419L9.54799 15.5533L3.64811 18.8137L7.98733 13.6552L8.13551 13.479L7.90706 13.4507L1.21754 12.6205L7.76012 10.9978L7.98356 10.9423L7.8154 10.7851L2.8914 6.18153L9.13831 8.71431L9.35164 8.80081L9.30801 8.57478L8.03033 1.95614L11.5955 7.67704L11.7172 7.87241L11.8148 7.6639L14.6714 1.55831L14.193 8.28215Z" fill="#C8DE44" stroke="#292929" stroke-width="0.25"/>
</svg>
